<svg width="228" height="18" viewBox="0 0 228 18" fill="none" xmlns="http://www.w3.org/2000/svg">
<path d="M-3.12328e-05 13.752V1.15195H1.51197V12.546H7.37997V13.752H-3.12328e-05ZM12.6883 13.968C11.8483 13.968 11.0923 13.776 10.4203 13.392C9.74828 13.008 9.21428 12.468 8.81828 11.772C8.43428 11.064 8.24228 10.236 8.24228 9.28795C8.24228 8.33995 8.44028 7.51795 8.83628 6.82195C9.23228 6.11395 9.76628 5.56795 10.4383 5.18395C11.1223 4.79995 11.8843 4.60795 12.7243 4.60795C13.5643 4.60795 14.3203 4.79995 14.9923 5.18395C15.6643 5.56795 16.1923 6.11395 16.5763 6.82195C16.9723 7.51795 17.1703 8.33995 17.1703 9.28795C17.1703 10.236 16.9723 11.064 16.5763 11.772C16.1803 12.468 15.6403 13.008 14.9563 13.392C14.2843 13.776 13.5283 13.968 12.6883 13.968ZM12.6883 12.672C13.2043 12.672 13.6843 12.546 14.1283 12.294C14.5723 12.042 14.9323 11.664 15.2083 11.16C15.4843 10.656 15.6223 10.032 15.6223 9.28795C15.6223 8.54395 15.4843 7.91995 15.2083 7.41595C14.9443 6.91195 14.5903 6.53395 14.1463 6.28195C13.7023 6.02995 13.2283 5.90395 12.7243 5.90395C12.2083 5.90395 11.7283 6.02995 11.2843 6.28195C10.8403 6.53395 10.4803 6.91195 10.2043 7.41595C9.92828 7.91995 9.79028 8.54395 9.79028 9.28795C9.79028 10.032 9.92828 10.656 10.2043 11.16C10.4803 11.664 10.8343 12.042 11.2663 12.294C11.7103 12.546 12.1843 12.672 12.6883 12.672ZM22.0539 10.944C21.5499 10.944 21.0879 10.878 20.6679 10.746L19.7679 11.592C19.8999 11.688 20.0619 11.772 20.2539 11.844C20.4579 11.904 20.7459 11.964 21.1179 12.024C21.4899 12.072 22.0119 12.126 22.6839 12.186C23.8839 12.27 24.7419 12.546 25.2579 13.014C25.7739 13.482 26.0319 14.094 26.0319 14.85C26.0319 15.366 25.8879 15.858 25.5999 16.326C25.3239 16.794 24.8919 17.178 24.3039 17.478C23.7279 17.778 22.9839 17.928 22.0719 17.928C21.2679 17.928 20.5539 17.82 19.9299 17.604C19.3059 17.4 18.8199 17.082 18.4719 16.65C18.1239 16.23 17.9499 15.696 17.9499 15.048C17.9499 14.712 18.0399 14.346 18.2199 13.95C18.3999 13.566 18.7359 13.2 19.2279 12.852C18.9639 12.744 18.7359 12.63 18.5439 12.51C18.3639 12.378 18.1959 12.234 18.0399 12.078V11.664L19.5699 10.152C18.8619 9.55195 18.5079 8.75995 18.5079 7.77595C18.5079 7.18795 18.6459 6.65395 18.9219 6.17395C19.1979 5.69395 19.5999 5.31595 20.1279 5.03995C20.6559 4.75195 21.2979 4.60795 22.0539 4.60795C22.5699 4.60795 23.0379 4.67995 23.4579 4.82395H26.7519V5.95795L25.0779 6.02995C25.4259 6.53395 25.5999 7.11595 25.5999 7.77595C25.5999 8.36395 25.4559 8.89795 25.1679 9.37795C24.8919 9.85795 24.4899 10.242 23.9619 10.53C23.4459 10.806 22.8099 10.944 22.0539 10.944ZM22.0539 9.70195C22.6899 9.70195 23.1939 9.53995 23.5659 9.21595C23.9499 8.87995 24.1419 8.39995 24.1419 7.77595C24.1419 7.16395 23.9499 6.69595 23.5659 6.37195C23.1939 6.03595 22.6899 5.86795 22.0539 5.86795C21.4059 5.86795 20.8899 6.03595 20.5059 6.37195C20.1339 6.69595 19.9479 7.16395 19.9479 7.77595C19.9479 8.39995 20.1339 8.87995 20.5059 9.21595C20.8899 9.53995 21.4059 9.70195 22.0539 9.70195ZM19.4259 14.904C19.4259 15.504 19.6779 15.948 20.1819 16.236C20.6859 16.536 21.3159 16.686 22.0719 16.686C22.8159 16.686 23.4099 16.524 23.8539 16.2C24.3099 15.876 24.5379 15.444 24.5379 14.904C24.5379 14.52 24.3819 14.184 24.0699 13.896C23.7579 13.62 23.1819 13.458 22.3419 13.41C21.6819 13.362 21.1119 13.302 20.6319 13.23C20.1399 13.494 19.8159 13.776 19.6599 14.076C19.5039 14.388 19.4259 14.664 19.4259 14.904ZM31.814 13.968C30.974 13.968 30.218 13.776 29.546 13.392C28.874 13.008 28.34 12.468 27.944 11.772C27.56 11.064 27.368 10.236 27.368 9.28795C27.368 8.33995 27.566 7.51795 27.962 6.82195C28.358 6.11395 28.892 5.56795 29.564 5.18395C30.248 4.79995 31.01 4.60795 31.85 4.60795C32.69 4.60795 33.446 4.79995 34.118 5.18395C34.79 5.56795 35.318 6.11395 35.702 6.82195C36.098 7.51795 36.296 8.33995 36.296 9.28795C36.296 10.236 36.098 11.064 35.702 11.772C35.306 12.468 34.766 13.008 34.082 13.392C33.41 13.776 32.654 13.968 31.814 13.968ZM31.814 12.672C32.33 12.672 32.81 12.546 33.254 12.294C33.698 12.042 34.058 11.664 34.334 11.16C34.61 10.656 34.748 10.032 34.748 9.28795C34.748 8.54395 34.61 7.91995 34.334 7.41595C34.07 6.91195 33.716 6.53395 33.272 6.28195C32.828 6.02995 32.354 5.90395 31.85 5.90395C31.334 5.90395 30.854 6.02995 30.41 6.28195C29.966 6.53395 29.606 6.91195 29.33 7.41595C29.054 7.91995 28.916 8.54395 28.916 9.28795C28.916 10.032 29.054 10.656 29.33 11.16C29.606 11.664 29.96 12.042 30.392 12.294C30.836 12.546 31.31 12.672 31.814 12.672ZM37.107 15.462L41.625 -4.79221e-05H43.119L38.601 15.462H37.107ZM45.6258 13.752V1.15195H49.4958C51.7158 1.15195 53.3478 1.71595 54.3918 2.84395C55.4478 3.97195 55.9758 5.51995 55.9758 7.48795C55.9758 9.41995 55.4478 10.95 54.3918 12.078C53.3478 13.194 51.7158 13.752 49.4958 13.752H45.6258ZM47.1378 12.492H49.4598C50.6838 12.492 51.6558 12.294 52.3758 11.898C53.1078 11.49 53.6298 10.914 53.9418 10.17C54.2538 9.41395 54.4098 8.51995 54.4098 7.48795C54.4098 6.43195 54.2538 5.52595 53.9418 4.76995C53.6298 4.01395 53.1078 3.43195 52.3758 3.02395C51.6558 2.61595 50.6838 2.41195 49.4598 2.41195H47.1378V12.492ZM61.723 13.968C60.871 13.968 60.115 13.776 59.455 13.392C58.795 12.996 58.273 12.45 57.889 11.754C57.517 11.058 57.331 10.236 57.331 9.28795C57.331 8.35195 57.517 7.53595 57.889 6.83995C58.261 6.13195 58.777 5.58595 59.437 5.20195C60.109 4.80595 60.883 4.60795 61.759 4.60795C62.623 4.60795 63.367 4.80595 63.991 5.20195C64.627 5.58595 65.113 6.09595 65.449 6.73195C65.785 7.36795 65.953 8.05195 65.953 8.78395C65.953 8.91595 65.947 9.04795 65.935 9.17995C65.935 9.31195 65.935 9.46195 65.935 9.62995H58.825C58.861 10.314 59.017 10.884 59.293 11.34C59.581 11.784 59.935 12.12 60.355 12.348C60.787 12.576 61.243 12.69 61.723 12.69C62.347 12.69 62.869 12.546 63.289 12.258C63.709 11.97 64.015 11.58 64.207 11.088H65.701C65.461 11.916 64.999 12.606 64.315 13.158C63.643 13.698 62.779 13.968 61.723 13.968ZM61.723 5.88595C61.003 5.88595 60.361 6.10795 59.797 6.55195C59.245 6.98395 58.927 7.61995 58.843 8.45995H64.459C64.423 7.65595 64.147 7.02595 63.631 6.56995C63.115 6.11395 62.479 5.88595 61.723 5.88595ZM71.017 13.968C69.949 13.968 69.061 13.698 68.353 13.158C67.645 12.618 67.231 11.886 67.111 10.962H68.659C68.755 11.43 69.001 11.838 69.397 12.186C69.805 12.522 70.351 12.69 71.035 12.69C71.671 12.69 72.139 12.558 72.439 12.294C72.739 12.018 72.889 11.694 72.889 11.322C72.889 10.782 72.691 10.422 72.295 10.242C71.911 10.062 71.365 9.89995 70.657 9.75595C70.177 9.65995 69.697 9.52195 69.217 9.34195C68.737 9.16195 68.335 8.90995 68.011 8.58595C67.687 8.24995 67.525 7.81195 67.525 7.27195C67.525 6.49195 67.813 5.85595 68.389 5.36395C68.977 4.85995 69.769 4.60795 70.765 4.60795C71.713 4.60795 72.487 4.84795 73.087 5.32795C73.699 5.79595 74.053 6.46795 74.149 7.34395H72.655C72.595 6.88795 72.397 6.53395 72.061 6.28195C71.737 6.01795 71.299 5.88595 70.747 5.88595C70.207 5.88595 69.787 5.99995 69.487 6.22795C69.199 6.45595 69.055 6.75595 69.055 7.12795C69.055 7.48795 69.241 7.76995 69.613 7.97395C69.997 8.17795 70.513 8.35195 71.161 8.49595C71.713 8.61595 72.235 8.76595 72.727 8.94595C73.231 9.11395 73.639 9.37195 73.951 9.71995C74.275 10.056 74.437 10.548 74.437 11.196C74.449 12 74.143 12.666 73.519 13.194C72.907 13.71 72.073 13.968 71.017 13.968ZM76.237 13.752V0.791953H77.749V8.58595L81.403 4.82395H83.257L79.297 8.85595L83.761 13.752H81.835L77.749 9.12595V13.752H76.237ZM88.4753 13.752C87.6593 13.752 87.0173 13.554 86.5493 13.158C86.0813 12.762 85.8473 12.048 85.8473 11.016V6.10195H84.2993V4.82395H85.8473L86.0453 2.68195H87.3593V4.82395H89.9873V6.10195H87.3593V11.016C87.3593 11.58 87.4733 11.964 87.7013 12.168C87.9293 12.36 88.3313 12.456 88.9073 12.456H89.8433V13.752H88.4753ZM95.3702 13.968C94.5302 13.968 93.7742 13.776 93.1022 13.392C92.4302 13.008 91.8962 12.468 91.5002 11.772C91.1162 11.064 90.9242 10.236 90.9242 9.28795C90.9242 8.33995 91.1222 7.51795 91.5182 6.82195C91.9142 6.11395 92.4482 5.56795 93.1202 5.18395C93.8042 4.79995 94.5662 4.60795 95.4062 4.60795C96.2462 4.60795 97.0022 4.79995 97.6742 5.18395C98.3462 5.56795 98.8742 6.11395 99.2582 6.82195C99.6542 7.51795 99.8522 8.33995 99.8522 9.28795C99.8522 10.236 99.6542 11.064 99.2582 11.772C98.8622 12.468 98.3222 13.008 97.6382 13.392C96.9662 13.776 96.2102 13.968 95.3702 13.968ZM95.3702 12.672C95.8862 12.672 96.3662 12.546 96.8102 12.294C97.2542 12.042 97.6142 11.664 97.8902 11.16C98.1662 10.656 98.3042 10.032 98.3042 9.28795C98.3042 8.54395 98.1662 7.91995 97.8902 7.41595C97.6262 6.91195 97.2722 6.53395 96.8282 6.28195C96.3842 6.02995 95.9102 5.90395 95.4062 5.90395C94.8902 5.90395 94.4102 6.02995 93.9662 6.28195C93.5222 6.53395 93.1622 6.91195 92.8862 7.41595C92.6102 7.91995 92.4722 8.54395 92.4722 9.28795C92.4722 10.032 92.6102 10.656 92.8862 11.16C93.1622 11.664 93.5162 12.042 93.9482 12.294C94.3922 12.546 94.8662 12.672 95.3702 12.672ZM101.595 17.712V4.82395H102.963L103.107 6.29995C103.395 5.86795 103.803 5.47795 104.331 5.12995C104.871 4.78195 105.555 4.60795 106.383 4.60795C107.271 4.60795 108.045 4.81195 108.705 5.21995C109.365 5.62795 109.875 6.18595 110.235 6.89395C110.607 7.60195 110.793 8.40595 110.793 9.30595C110.793 10.206 110.607 11.01 110.235 11.718C109.875 12.414 109.359 12.966 108.687 13.374C108.027 13.77 107.253 13.968 106.365 13.968C105.633 13.968 104.979 13.818 104.403 13.518C103.839 13.218 103.407 12.798 103.107 12.258V17.712H101.595ZM106.203 12.654C106.803 12.654 107.331 12.516 107.787 12.24C108.243 11.952 108.603 11.556 108.867 11.052C109.131 10.548 109.263 9.95995 109.263 9.28795C109.263 8.61595 109.131 8.02795 108.867 7.52395C108.603 7.01995 108.243 6.62995 107.787 6.35395C107.331 6.06595 106.803 5.92195 106.203 5.92195C105.603 5.92195 105.075 6.06595 104.619 6.35395C104.163 6.62995 103.803 7.01995 103.539 7.52395C103.275 8.02795 103.143 8.61595 103.143 9.28795C103.143 9.95995 103.275 10.548 103.539 11.052C103.803 11.556 104.163 11.952 104.619 12.24C105.075 12.516 105.603 12.654 106.203 12.654ZM111.606 15.462L116.124 -4.79221e-05H117.618L113.1 15.462H111.606ZM122.409 13.752V2.39395H118.647V1.15195H127.683V2.39395H123.921V13.752H122.409ZM130.713 13.968C129.969 13.968 129.351 13.842 128.859 13.59C128.367 13.338 128.001 13.002 127.761 12.582C127.521 12.162 127.401 11.706 127.401 11.214C127.401 10.302 127.749 9.59995 128.445 9.10795C129.141 8.61595 130.089 8.36995 131.289 8.36995H133.701V8.26195C133.701 7.48195 133.497 6.89395 133.089 6.49795C132.681 6.08995 132.135 5.88595 131.451 5.88595C130.863 5.88595 130.353 6.03595 129.921 6.33595C129.501 6.62395 129.237 7.04995 129.129 7.61395H127.581C127.641 6.96595 127.857 6.41995 128.229 5.97595C128.613 5.53195 129.087 5.19595 129.651 4.96795C130.215 4.72795 130.815 4.60795 131.451 4.60795C132.699 4.60795 133.635 4.94395 134.259 5.61595C134.895 6.27595 135.213 7.15795 135.213 8.26195V13.752H133.863L133.773 12.15C133.521 12.654 133.149 13.086 132.657 13.446C132.177 13.794 131.529 13.968 130.713 13.968ZM130.947 12.69C131.523 12.69 132.015 12.54 132.423 12.24C132.843 11.94 133.161 11.55 133.377 11.07C133.593 10.59 133.701 10.086 133.701 9.55795V9.53995H131.415C130.527 9.53995 129.897 9.69595 129.525 10.008C129.165 10.308 128.985 10.686 128.985 11.142C128.985 11.61 129.153 11.988 129.489 12.276C129.837 12.552 130.323 12.69 130.947 12.69ZM141.891 13.968C141.159 13.968 140.505 13.818 139.929 13.518C139.365 13.218 138.933 12.798 138.633 12.258L138.489 13.752H137.121V0.791953H138.633V6.29995C138.921 5.86795 139.329 5.47795 139.857 5.12995C140.397 4.78195 141.081 4.60795 141.909 4.60795C142.797 4.60795 143.571 4.81195 144.231 5.21995C144.891 5.62795 145.401 6.18595 145.761 6.89395C146.133 7.60195 146.319 8.40595 146.319 9.30595C146.319 10.206 146.133 11.01 145.761 11.718C145.401 12.414 144.885 12.966 144.213 13.374C143.553 13.77 142.779 13.968 141.891 13.968ZM141.729 12.654C142.329 12.654 142.857 12.516 143.313 12.24C143.769 11.952 144.129 11.556 144.393 11.052C144.657 10.548 144.789 9.95995 144.789 9.28795C144.789 8.61595 144.657 8.02795 144.393 7.52395C144.129 7.01995 143.769 6.62995 143.313 6.35395C142.857 6.06595 142.329 5.92195 141.729 5.92195C141.129 5.92195 140.601 6.06595 140.145 6.35395C139.689 6.62995 139.329 7.01995 139.065 7.52395C138.801 8.02795 138.669 8.61595 138.669 9.28795C138.669 9.95995 138.801 10.548 139.065 11.052C139.329 11.556 139.689 11.952 140.145 12.24C140.601 12.516 141.129 12.654 141.729 12.654ZM148.064 13.752V0.791953H149.576V13.752H148.064ZM155.708 13.968C154.856 13.968 154.1 13.776 153.44 13.392C152.78 12.996 152.258 12.45 151.874 11.754C151.502 11.058 151.316 10.236 151.316 9.28795C151.316 8.35195 151.502 7.53595 151.874 6.83995C152.246 6.13195 152.762 5.58595 153.422 5.20195C154.094 4.80595 154.868 4.60795 155.744 4.60795C156.608 4.60795 157.352 4.80595 157.976 5.20195C158.612 5.58595 159.098 6.09595 159.434 6.73195C159.77 7.36795 159.938 8.05195 159.938 8.78395C159.938 8.91595 159.932 9.04795 159.92 9.17995C159.92 9.31195 159.92 9.46195 159.92 9.62995H152.81C152.846 10.314 153.002 10.884 153.278 11.34C153.566 11.784 153.92 12.12 154.34 12.348C154.772 12.576 155.228 12.69 155.708 12.69C156.332 12.69 156.854 12.546 157.274 12.258C157.694 11.97 158 11.58 158.192 11.088H159.686C159.446 11.916 158.984 12.606 158.3 13.158C157.628 13.698 156.764 13.968 155.708 13.968ZM155.708 5.88595C154.988 5.88595 154.346 6.10795 153.782 6.55195C153.23 6.98395 152.912 7.61995 152.828 8.45995H158.444C158.408 7.65595 158.132 7.02595 157.616 6.56995C157.1 6.11395 156.464 5.88595 155.708 5.88595ZM164.811 13.752C163.995 13.752 163.353 13.554 162.885 13.158C162.417 12.762 162.183 12.048 162.183 11.016V6.10195H160.635V4.82395H162.183L162.381 2.68195H163.695V4.82395H166.323V6.10195H163.695V11.016C163.695 11.58 163.809 11.964 164.037 12.168C164.265 12.36 164.667 12.456 165.243 12.456H166.179V13.752H164.811ZM167.146 15.462L171.664 -4.79221e-05H173.158L168.64 15.462H167.146ZM175.665 13.752V1.15195H177.429L181.965 9.93595L186.465 1.15195H188.247V13.752H186.735V3.85195L182.523 11.952H181.389L177.177 3.86995V13.752H175.665ZM194.523 13.968C193.683 13.968 192.927 13.776 192.255 13.392C191.583 13.008 191.049 12.468 190.653 11.772C190.269 11.064 190.077 10.236 190.077 9.28795C190.077 8.33995 190.275 7.51795 190.671 6.82195C191.067 6.11395 191.601 5.56795 192.273 5.18395C192.957 4.79995 193.719 4.60795 194.559 4.60795C195.399 4.60795 196.155 4.79995 196.827 5.18395C197.499 5.56795 198.027 6.11395 198.411 6.82195C198.807 7.51795 199.005 8.33995 199.005 9.28795C199.005 10.236 198.807 11.064 198.411 11.772C198.015 12.468 197.475 13.008 196.791 13.392C196.119 13.776 195.363 13.968 194.523 13.968ZM194.523 12.672C195.039 12.672 195.519 12.546 195.963 12.294C196.407 12.042 196.767 11.664 197.043 11.16C197.319 10.656 197.457 10.032 197.457 9.28795C197.457 8.54395 197.319 7.91995 197.043 7.41595C196.779 6.91195 196.425 6.53395 195.981 6.28195C195.537 6.02995 195.063 5.90395 194.559 5.90395C194.043 5.90395 193.563 6.02995 193.119 6.28195C192.675 6.53395 192.315 6.91195 192.039 7.41595C191.763 7.91995 191.625 8.54395 191.625 9.28795C191.625 10.032 191.763 10.656 192.039 11.16C192.315 11.664 192.669 12.042 193.101 12.294C193.545 12.546 194.019 12.672 194.523 12.672ZM205.518 13.968C204.786 13.968 204.132 13.818 203.556 13.518C202.992 13.218 202.56 12.798 202.26 12.258L202.116 13.752H200.748V0.791953H202.26V6.29995C202.548 5.86795 202.956 5.47795 203.484 5.12995C204.024 4.78195 204.708 4.60795 205.536 4.60795C206.424 4.60795 207.198 4.81195 207.858 5.21995C208.518 5.62795 209.028 6.18595 209.388 6.89395C209.76 7.60195 209.946 8.40595 209.946 9.30595C209.946 10.206 209.76 11.01 209.388 11.718C209.028 12.414 208.512 12.966 207.84 13.374C207.18 13.77 206.406 13.968 205.518 13.968ZM205.356 12.654C205.956 12.654 206.484 12.516 206.94 12.24C207.396 11.952 207.756 11.556 208.02 11.052C208.284 10.548 208.416 9.95995 208.416 9.28795C208.416 8.61595 208.284 8.02795 208.02 7.52395C207.756 7.01995 207.396 6.62995 206.94 6.35395C206.484 6.06595 205.956 5.92195 205.356 5.92195C204.756 5.92195 204.228 6.06595 203.772 6.35395C203.316 6.62995 202.956 7.01995 202.692 7.52395C202.428 8.02795 202.296 8.61595 202.296 9.28795C202.296 9.95995 202.428 10.548 202.692 11.052C202.956 11.556 203.316 11.952 203.772 12.24C204.228 12.516 204.756 12.654 205.356 12.654ZM212.609 2.84395C212.309 2.84395 212.057 2.74795 211.853 2.55595C211.661 2.35195 211.565 2.09995 211.565 1.79995C211.565 1.51195 211.661 1.27195 211.853 1.07995C212.057 0.887952 212.309 0.791953 212.609 0.791953C212.897 0.791953 213.143 0.887952 213.347 1.07995C213.551 1.27195 213.653 1.51195 213.653 1.79995C213.653 2.09995 213.551 2.35195 213.347 2.55595C213.143 2.74795 212.897 2.84395 212.609 2.84395ZM211.853 13.752V4.82395H213.365V13.752H211.853ZM215.637 13.752V0.791953H217.149V13.752H215.637ZM223.281 13.968C222.429 13.968 221.673 13.776 221.013 13.392C220.353 12.996 219.831 12.45 219.447 11.754C219.075 11.058 218.889 10.236 218.889 9.28795C218.889 8.35195 219.075 7.53595 219.447 6.83995C219.819 6.13195 220.335 5.58595 220.995 5.20195C221.667 4.80595 222.441 4.60795 223.317 4.60795C224.181 4.60795 224.925 4.80595 225.549 5.20195C226.185 5.58595 226.671 6.09595 227.007 6.73195C227.343 7.36795 227.511 8.05195 227.511 8.78395C227.511 8.91595 227.505 9.04795 227.493 9.17995C227.493 9.31195 227.493 9.46195 227.493 9.62995H220.383C220.419 10.314 220.575 10.884 220.851 11.34C221.139 11.784 221.493 12.12 221.913 12.348C222.345 12.576 222.801 12.69 223.281 12.69C223.905 12.69 224.427 12.546 224.847 12.258C225.267 11.97 225.573 11.58 225.765 11.088H227.259C227.019 11.916 226.557 12.606 225.873 13.158C225.201 13.698 224.337 13.968 223.281 13.968ZM223.281 5.88595C222.561 5.88595 221.919 6.10795 221.355 6.55195C220.803 6.98395 220.485 7.61995 220.401 8.45995H226.017C225.981 7.65595 225.705 7.02595 225.189 6.56995C224.673 6.11395 224.037 5.88595 223.281 5.88595Z" fill="#242424"/>
</svg>
