<svg width="173" height="141" viewBox="0 0 173 141" fill="none" xmlns="http://www.w3.org/2000/svg">
<rect x="0.5" y="0.5" width="172" height="140" rx="4.5" stroke="#9747FF" stroke-dasharray="10 5"/>
<rect x="18.5" y="73.5" width="140" height="47" rx="23.5" fill="#F4F4F4"/>
<rect x="18.5" y="73.5" width="140" height="47" rx="23.5" stroke="#F4F4F4"/>
<path d="M48 102.192C46.9547 102.192 46.0373 101.952 45.248 101.472C44.4587 100.981 43.8453 100.304 43.408 99.44C42.9707 98.5653 42.752 97.5573 42.752 96.416C42.752 95.2747 42.9707 94.2667 43.408 93.392C43.856 92.5173 44.4853 91.8347 45.296 91.344C46.1173 90.8533 47.0827 90.608 48.192 90.608C49.4507 90.608 50.496 90.912 51.328 91.52C52.1707 92.128 52.7147 92.9653 52.96 94.032H51.408C51.2587 93.36 50.9013 92.8267 50.336 92.432C49.7813 92.0373 49.0667 91.84 48.192 91.84C47.3707 91.84 46.656 92.0267 46.048 92.4C45.44 92.7627 44.9653 93.2853 44.624 93.968C44.2933 94.6507 44.128 95.4667 44.128 96.416C44.128 97.3653 44.2933 98.1813 44.624 98.864C44.9547 99.5467 45.4133 100.075 46 100.448C46.5867 100.811 47.2693 100.992 48.048 100.992C49.2427 100.992 50.144 100.645 50.752 99.952C51.36 99.248 51.7067 98.288 51.792 97.072H48.56V96.016H53.168V102H51.936L51.824 100.16C51.4187 100.811 50.9227 101.312 50.336 101.664C49.7493 102.016 48.9707 102.192 48 102.192ZM56.0294 92.304C55.7627 92.304 55.5387 92.2187 55.3574 92.048C55.1867 91.8667 55.1014 91.6427 55.1014 91.376C55.1014 91.12 55.1867 90.9067 55.3574 90.736C55.5387 90.5653 55.7627 90.48 56.0294 90.48C56.2854 90.48 56.504 90.5653 56.6854 90.736C56.8667 90.9067 56.9574 91.12 56.9574 91.376C56.9574 91.6427 56.8667 91.8667 56.6854 92.048C56.504 92.2187 56.2854 92.304 56.0294 92.304ZM55.3574 102V94.064H56.7014V102H55.3574ZM61.3295 102L58.3215 94.064H59.7295L62.1135 100.704L64.5135 94.064H65.8895L62.8815 102H61.3295ZM70.547 102.192C69.7897 102.192 69.1177 102.021 68.531 101.68C67.9443 101.328 67.4803 100.843 67.139 100.224C66.8083 99.6053 66.643 98.8747 66.643 98.032C66.643 97.2 66.8083 96.4747 67.139 95.856C67.4697 95.2267 67.9283 94.7413 68.515 94.4C69.1123 94.048 69.8003 93.872 70.579 93.872C71.347 93.872 72.0083 94.048 72.563 94.4C73.1283 94.7413 73.5603 95.1947 73.859 95.76C74.1577 96.3253 74.307 96.9333 74.307 97.584C74.307 97.7013 74.3017 97.8187 74.291 97.936C74.291 98.0533 74.291 98.1867 74.291 98.336H67.971C68.003 98.944 68.1417 99.4507 68.387 99.856C68.643 100.251 68.9577 100.549 69.331 100.752C69.715 100.955 70.1203 101.056 70.547 101.056C71.1017 101.056 71.5657 100.928 71.939 100.672C72.3123 100.416 72.5843 100.069 72.755 99.632H74.083C73.8697 100.368 73.459 100.981 72.851 101.472C72.2537 101.952 71.4857 102.192 70.547 102.192ZM70.547 95.008C69.907 95.008 69.3363 95.2053 68.835 95.6C68.3443 95.984 68.0617 96.5493 67.987 97.296H72.979C72.947 96.5813 72.7017 96.0213 72.243 95.616C71.7843 95.2107 71.219 95.008 70.547 95.008ZM82.9628 102.192C82.3014 102.192 81.7521 102.08 81.3148 101.856C80.8774 101.632 80.5521 101.333 80.3388 100.96C80.1254 100.587 80.0188 100.181 80.0188 99.744C80.0188 98.9333 80.3281 98.3093 80.9468 97.872C81.5654 97.4347 82.4081 97.216 83.4748 97.216H85.6188V97.12C85.6188 96.4267 85.4374 95.904 85.0748 95.552C84.7121 95.1893 84.2268 95.008 83.6188 95.008C83.0961 95.008 82.6428 95.1413 82.2588 95.408C81.8854 95.664 81.6508 96.0427 81.5548 96.544H80.1788C80.2321 95.968 80.4241 95.4827 80.7548 95.088C81.0961 94.6933 81.5174 94.3947 82.0188 94.192C82.5201 93.9787 83.0534 93.872 83.6188 93.872C84.7281 93.872 85.5601 94.1707 86.1148 94.768C86.6801 95.3547 86.9628 96.1387 86.9628 97.12V102H85.7628L85.6828 100.576C85.4588 101.024 85.1281 101.408 84.6908 101.728C84.2641 102.037 83.6881 102.192 82.9628 102.192ZM83.1708 101.056C83.6828 101.056 84.1201 100.923 84.4828 100.656C84.8561 100.389 85.1388 100.043 85.3308 99.616C85.5228 99.1893 85.6188 98.7413 85.6188 98.272V98.256H83.5868C82.7974 98.256 82.2374 98.3947 81.9068 98.672C81.5868 98.9387 81.4268 99.2747 81.4268 99.68C81.4268 100.096 81.5761 100.432 81.8748 100.688C82.1841 100.933 82.6161 101.056 83.1708 101.056ZM93.2134 102V94.064H94.4294L94.5414 95.584C94.7867 95.0613 95.16 94.6453 95.6614 94.336C96.1627 94.0267 96.7814 93.872 97.5174 93.872V95.28H97.1494C96.68 95.28 96.248 95.3653 95.8534 95.536C95.4587 95.696 95.144 95.9733 94.9094 96.368C94.6747 96.7627 94.5574 97.3067 94.5574 98V102H93.2134ZM101.666 102.192C101.005 102.192 100.455 102.08 100.018 101.856C99.5805 101.632 99.2552 101.333 99.0419 100.96C98.8285 100.587 98.7219 100.181 98.7219 99.744C98.7219 98.9333 99.0312 98.3093 99.6499 97.872C100.269 97.4347 101.111 97.216 102.178 97.216H104.322V97.12C104.322 96.4267 104.141 95.904 103.778 95.552C103.415 95.1893 102.93 95.008 102.322 95.008C101.799 95.008 101.346 95.1413 100.962 95.408C100.589 95.664 100.354 96.0427 100.258 96.544H98.8819C98.9352 95.968 99.1272 95.4827 99.4579 95.088C99.7992 94.6933 100.221 94.3947 100.722 94.192C101.223 93.9787 101.757 93.872 102.322 93.872C103.431 93.872 104.263 94.1707 104.818 94.768C105.383 95.3547 105.666 96.1387 105.666 97.12V102H104.466L104.386 100.576C104.162 101.024 103.831 101.408 103.394 101.728C102.967 102.037 102.391 102.192 101.666 102.192ZM101.874 101.056C102.386 101.056 102.823 100.923 103.186 100.656C103.559 100.389 103.842 100.043 104.034 99.616C104.226 99.1893 104.322 98.7413 104.322 98.272V98.256H102.29C101.501 98.256 100.941 98.3947 100.61 98.672C100.29 98.9387 100.13 99.2747 100.13 99.68C100.13 100.096 100.279 100.432 100.578 100.688C100.887 100.933 101.319 101.056 101.874 101.056ZM110.599 102C109.874 102 109.303 101.824 108.887 101.472C108.471 101.12 108.263 100.485 108.263 99.568V95.2H106.887V94.064H108.263L108.439 92.16H109.607V94.064H111.943V95.2H109.607V99.568C109.607 100.069 109.709 100.411 109.911 100.592C110.114 100.763 110.471 100.848 110.983 100.848H111.815V102H110.599ZM114.467 92.304C114.2 92.304 113.976 92.2187 113.795 92.048C113.624 91.8667 113.539 91.6427 113.539 91.376C113.539 91.12 113.624 90.9067 113.795 90.736C113.976 90.5653 114.2 90.48 114.467 90.48C114.723 90.48 114.942 90.5653 115.123 90.736C115.304 90.9067 115.395 91.12 115.395 91.376C115.395 91.6427 115.304 91.8667 115.123 92.048C114.942 92.2187 114.723 92.304 114.467 92.304ZM113.795 102V94.064H115.139V102H113.795ZM117.479 102V94.064H118.695L118.775 95.488C119.031 94.9867 119.399 94.592 119.879 94.304C120.359 94.016 120.903 93.872 121.511 93.872C122.45 93.872 123.196 94.16 123.751 94.736C124.316 95.3013 124.599 96.176 124.599 97.36V102H123.255V97.504C123.255 95.8507 122.572 95.024 121.207 95.024C120.524 95.024 119.954 95.2747 119.495 95.776C119.047 96.2667 118.823 96.9707 118.823 97.888V102H117.479ZM129.771 99.504C129.323 99.504 128.913 99.4453 128.539 99.328L127.739 100.08C127.857 100.165 128.001 100.24 128.171 100.304C128.353 100.357 128.609 100.411 128.939 100.464C129.27 100.507 129.734 100.555 130.331 100.608C131.398 100.683 132.161 100.928 132.619 101.344C133.078 101.76 133.307 102.304 133.307 102.976C133.307 103.435 133.179 103.872 132.923 104.288C132.678 104.704 132.294 105.045 131.771 105.312C131.259 105.579 130.598 105.712 129.787 105.712C129.073 105.712 128.438 105.616 127.883 105.424C127.329 105.243 126.897 104.96 126.587 104.576C126.278 104.203 126.123 103.728 126.123 103.152C126.123 102.853 126.203 102.528 126.363 102.176C126.523 101.835 126.822 101.509 127.259 101.2C127.025 101.104 126.822 101.003 126.651 100.896C126.491 100.779 126.342 100.651 126.203 100.512V100.144L127.563 98.8C126.934 98.2667 126.619 97.5627 126.619 96.688C126.619 96.1653 126.742 95.6907 126.987 95.264C127.233 94.8373 127.59 94.5013 128.059 94.256C128.529 94 129.099 93.872 129.771 93.872C130.23 93.872 130.646 93.936 131.019 94.064H133.947V95.072L132.459 95.136C132.769 95.584 132.923 96.1013 132.923 96.688C132.923 97.2107 132.795 97.6853 132.539 98.112C132.294 98.5387 131.937 98.88 131.467 99.136C131.009 99.3813 130.443 99.504 129.771 99.504ZM129.771 98.4C130.337 98.4 130.785 98.256 131.115 97.968C131.457 97.6693 131.627 97.2427 131.627 96.688C131.627 96.144 131.457 95.728 131.115 95.44C130.785 95.1413 130.337 94.992 129.771 94.992C129.195 94.992 128.737 95.1413 128.395 95.44C128.065 95.728 127.899 96.144 127.899 96.688C127.899 97.2427 128.065 97.6693 128.395 97.968C128.737 98.256 129.195 98.4 129.771 98.4ZM127.435 103.024C127.435 103.557 127.659 103.952 128.107 104.208C128.555 104.475 129.115 104.608 129.787 104.608C130.449 104.608 130.977 104.464 131.371 104.176C131.777 103.888 131.979 103.504 131.979 103.024C131.979 102.683 131.841 102.384 131.563 102.128C131.286 101.883 130.774 101.739 130.027 101.696C129.441 101.653 128.934 101.6 128.507 101.536C128.07 101.771 127.782 102.021 127.643 102.288C127.505 102.565 127.435 102.811 127.435 103.024Z" fill="#242424"/>
<rect x="18.5" y="15.5" width="140" height="47" rx="23.5" stroke="#F4F4F4"/>
<path d="M48 44.192C46.9547 44.192 46.0373 43.952 45.248 43.472C44.4587 42.9813 43.8453 42.304 43.408 41.44C42.9707 40.5653 42.752 39.5573 42.752 38.416C42.752 37.2747 42.9707 36.2667 43.408 35.392C43.856 34.5173 44.4853 33.8347 45.296 33.344C46.1173 32.8533 47.0827 32.608 48.192 32.608C49.4507 32.608 50.496 32.912 51.328 33.52C52.1707 34.128 52.7147 34.9653 52.96 36.032H51.408C51.2587 35.36 50.9013 34.8267 50.336 34.432C49.7813 34.0373 49.0667 33.84 48.192 33.84C47.3707 33.84 46.656 34.0267 46.048 34.4C45.44 34.7627 44.9653 35.2853 44.624 35.968C44.2933 36.6507 44.128 37.4667 44.128 38.416C44.128 39.3653 44.2933 40.1813 44.624 40.864C44.9547 41.5467 45.4133 42.0747 46 42.448C46.5867 42.8107 47.2693 42.992 48.048 42.992C49.2427 42.992 50.144 42.6453 50.752 41.952C51.36 41.248 51.7067 40.288 51.792 39.072H48.56V38.016H53.168V44H51.936L51.824 42.16C51.4187 42.8107 50.9227 43.312 50.336 43.664C49.7493 44.016 48.9707 44.192 48 44.192ZM56.0294 34.304C55.7627 34.304 55.5387 34.2187 55.3574 34.048C55.1867 33.8667 55.1014 33.6427 55.1014 33.376C55.1014 33.12 55.1867 32.9067 55.3574 32.736C55.5387 32.5653 55.7627 32.48 56.0294 32.48C56.2854 32.48 56.504 32.5653 56.6854 32.736C56.8667 32.9067 56.9574 33.12 56.9574 33.376C56.9574 33.6427 56.8667 33.8667 56.6854 34.048C56.504 34.2187 56.2854 34.304 56.0294 34.304ZM55.3574 44V36.064H56.7014V44H55.3574ZM61.3295 44L58.3215 36.064H59.7295L62.1135 42.704L64.5135 36.064H65.8895L62.8815 44H61.3295ZM70.547 44.192C69.7897 44.192 69.1177 44.0213 68.531 43.68C67.9443 43.328 67.4803 42.8427 67.139 42.224C66.8083 41.6053 66.643 40.8747 66.643 40.032C66.643 39.2 66.8083 38.4747 67.139 37.856C67.4697 37.2267 67.9283 36.7413 68.515 36.4C69.1123 36.048 69.8003 35.872 70.579 35.872C71.347 35.872 72.0083 36.048 72.563 36.4C73.1283 36.7413 73.5603 37.1947 73.859 37.76C74.1577 38.3253 74.307 38.9333 74.307 39.584C74.307 39.7013 74.3017 39.8187 74.291 39.936C74.291 40.0533 74.291 40.1867 74.291 40.336H67.971C68.003 40.944 68.1417 41.4507 68.387 41.856C68.643 42.2507 68.9577 42.5493 69.331 42.752C69.715 42.9547 70.1203 43.056 70.547 43.056C71.1017 43.056 71.5657 42.928 71.939 42.672C72.3123 42.416 72.5843 42.0693 72.755 41.632H74.083C73.8697 42.368 73.459 42.9813 72.851 43.472C72.2537 43.952 71.4857 44.192 70.547 44.192ZM70.547 37.008C69.907 37.008 69.3363 37.2053 68.835 37.6C68.3443 37.984 68.0617 38.5493 67.987 39.296H72.979C72.947 38.5813 72.7017 38.0213 72.243 37.616C71.7843 37.2107 71.219 37.008 70.547 37.008ZM82.9628 44.192C82.3014 44.192 81.7521 44.08 81.3148 43.856C80.8774 43.632 80.5521 43.3333 80.3388 42.96C80.1254 42.5867 80.0188 42.1813 80.0188 41.744C80.0188 40.9333 80.3281 40.3093 80.9468 39.872C81.5654 39.4347 82.4081 39.216 83.4748 39.216H85.6188V39.12C85.6188 38.4267 85.4374 37.904 85.0748 37.552C84.7121 37.1893 84.2268 37.008 83.6188 37.008C83.0961 37.008 82.6428 37.1413 82.2588 37.408C81.8854 37.664 81.6508 38.0427 81.5548 38.544H80.1788C80.2321 37.968 80.4241 37.4827 80.7548 37.088C81.0961 36.6933 81.5174 36.3947 82.0188 36.192C82.5201 35.9787 83.0534 35.872 83.6188 35.872C84.7281 35.872 85.5601 36.1707 86.1148 36.768C86.6801 37.3547 86.9628 38.1387 86.9628 39.12V44H85.7628L85.6828 42.576C85.4588 43.024 85.1281 43.408 84.6908 43.728C84.2641 44.0373 83.6881 44.192 82.9628 44.192ZM83.1708 43.056C83.6828 43.056 84.1201 42.9227 84.4828 42.656C84.8561 42.3893 85.1388 42.0427 85.3308 41.616C85.5228 41.1893 85.6188 40.7413 85.6188 40.272V40.256H83.5868C82.7974 40.256 82.2374 40.3947 81.9068 40.672C81.5868 40.9387 81.4268 41.2747 81.4268 41.68C81.4268 42.096 81.5761 42.432 81.8748 42.688C82.1841 42.9333 82.6161 43.056 83.1708 43.056ZM93.2134 44V36.064H94.4294L94.5414 37.584C94.7867 37.0613 95.16 36.6453 95.6614 36.336C96.1627 36.0267 96.7814 35.872 97.5174 35.872V37.28H97.1494C96.68 37.28 96.248 37.3653 95.8534 37.536C95.4587 37.696 95.144 37.9733 94.9094 38.368C94.6747 38.7627 94.5574 39.3067 94.5574 40V44H93.2134ZM101.666 44.192C101.005 44.192 100.455 44.08 100.018 43.856C99.5805 43.632 99.2552 43.3333 99.0419 42.96C98.8285 42.5867 98.7219 42.1813 98.7219 41.744C98.7219 40.9333 99.0312 40.3093 99.6499 39.872C100.269 39.4347 101.111 39.216 102.178 39.216H104.322V39.12C104.322 38.4267 104.141 37.904 103.778 37.552C103.415 37.1893 102.93 37.008 102.322 37.008C101.799 37.008 101.346 37.1413 100.962 37.408C100.589 37.664 100.354 38.0427 100.258 38.544H98.8819C98.9352 37.968 99.1272 37.4827 99.4579 37.088C99.7992 36.6933 100.221 36.3947 100.722 36.192C101.223 35.9787 101.757 35.872 102.322 35.872C103.431 35.872 104.263 36.1707 104.818 36.768C105.383 37.3547 105.666 38.1387 105.666 39.12V44H104.466L104.386 42.576C104.162 43.024 103.831 43.408 103.394 43.728C102.967 44.0373 102.391 44.192 101.666 44.192ZM101.874 43.056C102.386 43.056 102.823 42.9227 103.186 42.656C103.559 42.3893 103.842 42.0427 104.034 41.616C104.226 41.1893 104.322 40.7413 104.322 40.272V40.256H102.29C101.501 40.256 100.941 40.3947 100.61 40.672C100.29 40.9387 100.13 41.2747 100.13 41.68C100.13 42.096 100.279 42.432 100.578 42.688C100.887 42.9333 101.319 43.056 101.874 43.056ZM110.599 44C109.874 44 109.303 43.824 108.887 43.472C108.471 43.12 108.263 42.4853 108.263 41.568V37.2H106.887V36.064H108.263L108.439 34.16H109.607V36.064H111.943V37.2H109.607V41.568C109.607 42.0693 109.709 42.4107 109.911 42.592C110.114 42.7627 110.471 42.848 110.983 42.848H111.815V44H110.599ZM114.467 34.304C114.2 34.304 113.976 34.2187 113.795 34.048C113.624 33.8667 113.539 33.6427 113.539 33.376C113.539 33.12 113.624 32.9067 113.795 32.736C113.976 32.5653 114.2 32.48 114.467 32.48C114.723 32.48 114.942 32.5653 115.123 32.736C115.304 32.9067 115.395 33.12 115.395 33.376C115.395 33.6427 115.304 33.8667 115.123 34.048C114.942 34.2187 114.723 34.304 114.467 34.304ZM113.795 44V36.064H115.139V44H113.795ZM117.479 44V36.064H118.695L118.775 37.488C119.031 36.9867 119.399 36.592 119.879 36.304C120.359 36.016 120.903 35.872 121.511 35.872C122.45 35.872 123.196 36.16 123.751 36.736C124.316 37.3013 124.599 38.176 124.599 39.36V44H123.255V39.504C123.255 37.8507 122.572 37.024 121.207 37.024C120.524 37.024 119.954 37.2747 119.495 37.776C119.047 38.2667 118.823 38.9707 118.823 39.888V44H117.479ZM129.771 41.504C129.323 41.504 128.913 41.4453 128.539 41.328L127.739 42.08C127.857 42.1653 128.001 42.24 128.171 42.304C128.353 42.3573 128.609 42.4107 128.939 42.464C129.27 42.5067 129.734 42.5547 130.331 42.608C131.398 42.6827 132.161 42.928 132.619 43.344C133.078 43.76 133.307 44.304 133.307 44.976C133.307 45.4347 133.179 45.872 132.923 46.288C132.678 46.704 132.294 47.0453 131.771 47.312C131.259 47.5787 130.598 47.712 129.787 47.712C129.073 47.712 128.438 47.616 127.883 47.424C127.329 47.2427 126.897 46.96 126.587 46.576C126.278 46.2027 126.123 45.728 126.123 45.152C126.123 44.8533 126.203 44.528 126.363 44.176C126.523 43.8347 126.822 43.5093 127.259 43.2C127.025 43.104 126.822 43.0027 126.651 42.896C126.491 42.7787 126.342 42.6507 126.203 42.512V42.144L127.563 40.8C126.934 40.2667 126.619 39.5627 126.619 38.688C126.619 38.1653 126.742 37.6907 126.987 37.264C127.233 36.8373 127.59 36.5013 128.059 36.256C128.529 36 129.099 35.872 129.771 35.872C130.23 35.872 130.646 35.936 131.019 36.064H133.947V37.072L132.459 37.136C132.769 37.584 132.923 38.1013 132.923 38.688C132.923 39.2107 132.795 39.6853 132.539 40.112C132.294 40.5387 131.937 40.88 131.467 41.136C131.009 41.3813 130.443 41.504 129.771 41.504ZM129.771 40.4C130.337 40.4 130.785 40.256 131.115 39.968C131.457 39.6693 131.627 39.2427 131.627 38.688C131.627 38.144 131.457 37.728 131.115 37.44C130.785 37.1413 130.337 36.992 129.771 36.992C129.195 36.992 128.737 37.1413 128.395 37.44C128.065 37.728 127.899 38.144 127.899 38.688C127.899 39.2427 128.065 39.6693 128.395 39.968C128.737 40.256 129.195 40.4 129.771 40.4ZM127.435 45.024C127.435 45.5573 127.659 45.952 128.107 46.208C128.555 46.4747 129.115 46.608 129.787 46.608C130.449 46.608 130.977 46.464 131.371 46.176C131.777 45.888 131.979 45.504 131.979 45.024C131.979 44.6827 131.841 44.384 131.563 44.128C131.286 43.8827 130.774 43.7387 130.027 43.696C129.441 43.6533 128.934 43.6 128.507 43.536C128.07 43.7707 127.782 44.0213 127.643 44.288C127.505 44.5653 127.435 44.8107 127.435 45.024Z" fill="#F4F4F4"/>
</svg>
