<svg width="207" height="146" viewBox="0 0 207 146" fill="none" xmlns="http://www.w3.org/2000/svg">
<rect x="0.5" y="0.5" width="206" height="145" rx="4.5" stroke="#9747FF" stroke-dasharray="10 5"/>
<rect x="6.5" y="76.5" width="193" height="47" rx="23.5" stroke="#F4F4F4"/>
<path d="M30.48 105L34.608 93.8H36.032L40.144 105H38.72L37.696 102.12H32.928L31.888 105H30.48ZM33.328 101.032H37.296L35.312 95.496L33.328 101.032ZM44.8915 105.192C44.1022 105.192 43.4088 105.011 42.8115 104.648C42.2248 104.285 41.7662 103.789 41.4355 103.16C41.1155 102.531 40.9555 101.816 40.9555 101.016C40.9555 100.216 41.1208 99.5067 41.4515 98.888C41.7822 98.2587 42.2408 97.768 42.8275 97.416C43.4142 97.0533 44.1075 96.872 44.9075 96.872C45.5582 96.872 46.1342 97.0053 46.6355 97.272C47.1368 97.5387 47.5262 97.912 47.8035 98.392V93.48H49.1475V105H47.9315L47.8035 103.688C47.5475 104.072 47.1795 104.419 46.6995 104.728C46.2195 105.037 45.6168 105.192 44.8915 105.192ZM45.0355 104.024C45.5688 104.024 46.0382 103.901 46.4435 103.656C46.8595 103.4 47.1795 103.048 47.4035 102.6C47.6382 102.152 47.7555 101.629 47.7555 101.032C47.7555 100.435 47.6382 99.912 47.4035 99.464C47.1795 99.016 46.8595 98.6693 46.4435 98.424C46.0382 98.168 45.5688 98.04 45.0355 98.04C44.5128 98.04 44.0435 98.168 43.6275 98.424C43.2222 98.6693 42.9022 99.016 42.6675 99.464C42.4435 99.912 42.3315 100.435 42.3315 101.032C42.3315 101.629 42.4435 102.152 42.6675 102.6C42.9022 103.048 43.2222 103.4 43.6275 103.656C44.0435 103.901 44.5128 104.024 45.0355 104.024ZM54.9384 105.192C54.149 105.192 53.4557 105.011 52.8584 104.648C52.2717 104.285 51.813 103.789 51.4824 103.16C51.1624 102.531 51.0024 101.816 51.0024 101.016C51.0024 100.216 51.1677 99.5067 51.4984 98.888C51.829 98.2587 52.2877 97.768 52.8744 97.416C53.461 97.0533 54.1544 96.872 54.9544 96.872C55.605 96.872 56.181 97.0053 56.6824 97.272C57.1837 97.5387 57.573 97.912 57.8504 98.392V93.48H59.1944V105H57.9784L57.8504 103.688C57.5944 104.072 57.2264 104.419 56.7464 104.728C56.2664 105.037 55.6637 105.192 54.9384 105.192ZM55.0824 104.024C55.6157 104.024 56.085 103.901 56.4904 103.656C56.9064 103.4 57.2264 103.048 57.4504 102.6C57.685 102.152 57.8024 101.629 57.8024 101.032C57.8024 100.435 57.685 99.912 57.4504 99.464C57.2264 99.016 56.9064 98.6693 56.4904 98.424C56.085 98.168 55.6157 98.04 55.0824 98.04C54.5597 98.04 54.0904 98.168 53.6744 98.424C53.269 98.6693 52.949 99.016 52.7144 99.464C52.4904 99.912 52.3784 100.435 52.3784 101.032C52.3784 101.629 52.4904 102.152 52.7144 102.6C52.949 103.048 53.269 103.4 53.6744 103.656C54.0904 103.901 54.5597 104.024 55.0824 104.024ZM68.7556 105C68.0303 105 67.4596 104.824 67.0436 104.472C66.6276 104.12 66.4196 103.485 66.4196 102.568V98.2H65.0436V97.064H66.4196L66.5956 95.16H67.7636V97.064H70.0996V98.2H67.7636V102.568C67.7636 103.069 67.865 103.411 68.0676 103.592C68.2703 103.763 68.6276 103.848 69.1396 103.848H69.9716V105H68.7556ZM75.2044 105.192C74.4577 105.192 73.7857 105.021 73.1884 104.68C72.591 104.339 72.1164 103.859 71.7644 103.24C71.423 102.611 71.2524 101.875 71.2524 101.032C71.2524 100.189 71.4284 99.4587 71.7804 98.84C72.1324 98.2107 72.607 97.7253 73.2044 97.384C73.8124 97.0427 74.4897 96.872 75.2364 96.872C75.983 96.872 76.655 97.0427 77.2524 97.384C77.8497 97.7253 78.319 98.2107 78.6604 98.84C79.0124 99.4587 79.1884 100.189 79.1884 101.032C79.1884 101.875 79.0124 102.611 78.6604 103.24C78.3084 103.859 77.8284 104.339 77.2204 104.68C76.623 105.021 75.951 105.192 75.2044 105.192ZM75.2044 104.04C75.663 104.04 76.0897 103.928 76.4844 103.704C76.879 103.48 77.199 103.144 77.4444 102.696C77.6897 102.248 77.8124 101.693 77.8124 101.032C77.8124 100.371 77.6897 99.816 77.4444 99.368C77.2097 98.92 76.895 98.584 76.5004 98.36C76.1057 98.136 75.6844 98.024 75.2364 98.024C74.7777 98.024 74.351 98.136 73.9564 98.36C73.5617 98.584 73.2417 98.92 72.9964 99.368C72.751 99.816 72.6284 100.371 72.6284 101.032C72.6284 101.693 72.751 102.248 72.9964 102.696C73.2417 103.144 73.5564 103.48 73.9404 103.704C74.335 103.928 74.7564 104.04 75.2044 104.04ZM85.7235 105V98.2H84.5235V97.064H85.7235V95.688C85.7235 94.92 85.9155 94.36 86.2995 94.008C86.6835 93.656 87.2435 93.48 87.9795 93.48H88.7795V94.632H88.1875C87.7822 94.632 87.4942 94.7173 87.3235 94.888C87.1528 95.048 87.0675 95.3253 87.0675 95.72V97.064H89.0195V98.2H87.0675V105H85.7235ZM92.9471 105.192C92.2858 105.192 91.7365 105.08 91.2991 104.856C90.8618 104.632 90.5365 104.333 90.3231 103.96C90.1098 103.587 90.0031 103.181 90.0031 102.744C90.0031 101.933 90.3125 101.309 90.9311 100.872C91.5498 100.435 92.3925 100.216 93.4591 100.216H95.6031V100.12C95.6031 99.4267 95.4218 98.904 95.0591 98.552C94.6965 98.1893 94.2111 98.008 93.6031 98.008C93.0805 98.008 92.6271 98.1413 92.2431 98.408C91.8698 98.664 91.6351 99.0427 91.5391 99.544H90.1631C90.2165 98.968 90.4085 98.4827 90.7391 98.088C91.0805 97.6933 91.5018 97.3947 92.0031 97.192C92.5045 96.9787 93.0378 96.872 93.6031 96.872C94.7125 96.872 95.5445 97.1707 96.0991 97.768C96.6645 98.3547 96.9471 99.1387 96.9471 100.12V105H95.7471L95.6671 103.576C95.4431 104.024 95.1125 104.408 94.6751 104.728C94.2485 105.037 93.6725 105.192 92.9471 105.192ZM93.1551 104.056C93.6671 104.056 94.1045 103.923 94.4671 103.656C94.8405 103.389 95.1231 103.043 95.3151 102.616C95.5071 102.189 95.6031 101.741 95.6031 101.272V101.256H93.5711C92.7818 101.256 92.2218 101.395 91.8911 101.672C91.5711 101.939 91.4111 102.275 91.4111 102.68C91.4111 103.096 91.5605 103.432 91.8591 103.688C92.1685 103.933 92.6005 104.056 93.1551 104.056ZM100.955 105L97.9465 97.064H99.3545L101.739 103.704L104.139 97.064H105.515L102.507 105H100.955ZM110.22 105.192C109.473 105.192 108.801 105.021 108.204 104.68C107.607 104.339 107.132 103.859 106.78 103.24C106.439 102.611 106.268 101.875 106.268 101.032C106.268 100.189 106.444 99.4587 106.796 98.84C107.148 98.2107 107.623 97.7253 108.22 97.384C108.828 97.0427 109.505 96.872 110.252 96.872C110.999 96.872 111.671 97.0427 112.268 97.384C112.865 97.7253 113.335 98.2107 113.676 98.84C114.028 99.4587 114.204 100.189 114.204 101.032C114.204 101.875 114.028 102.611 113.676 103.24C113.324 103.859 112.844 104.339 112.236 104.68C111.639 105.021 110.967 105.192 110.22 105.192ZM110.22 104.04C110.679 104.04 111.105 103.928 111.5 103.704C111.895 103.48 112.215 103.144 112.46 102.696C112.705 102.248 112.828 101.693 112.828 101.032C112.828 100.371 112.705 99.816 112.46 99.368C112.225 98.92 111.911 98.584 111.516 98.36C111.121 98.136 110.7 98.024 110.252 98.024C109.793 98.024 109.367 98.136 108.972 98.36C108.577 98.584 108.257 98.92 108.012 99.368C107.767 99.816 107.644 100.371 107.644 101.032C107.644 101.693 107.767 102.248 108.012 102.696C108.257 103.144 108.572 103.48 108.956 103.704C109.351 103.928 109.772 104.04 110.22 104.04ZM116.073 105V97.064H117.289L117.401 98.584C117.646 98.0613 118.019 97.6453 118.521 97.336C119.022 97.0267 119.641 96.872 120.377 96.872V98.28H120.009C119.539 98.28 119.107 98.3653 118.713 98.536C118.318 98.696 118.003 98.9733 117.769 99.368C117.534 99.7627 117.417 100.307 117.417 101V105H116.073ZM122.701 95.304C122.435 95.304 122.211 95.2187 122.029 95.048C121.859 94.8667 121.773 94.6427 121.773 94.376C121.773 94.12 121.859 93.9067 122.029 93.736C122.211 93.5653 122.435 93.48 122.701 93.48C122.957 93.48 123.176 93.5653 123.357 93.736C123.539 93.9067 123.629 94.12 123.629 94.376C123.629 94.6427 123.539 94.8667 123.357 95.048C123.176 95.2187 122.957 95.304 122.701 95.304ZM122.029 105V97.064H123.373V105H122.029ZM128.849 105C128.124 105 127.553 104.824 127.137 104.472C126.721 104.12 126.513 103.485 126.513 102.568V98.2H125.137V97.064H126.513L126.689 95.16H127.857V97.064H130.193V98.2H127.857V102.568C127.857 103.069 127.959 103.411 128.161 103.592C128.364 103.763 128.721 103.848 129.233 103.848H130.065V105H128.849ZM135.25 105.192C134.493 105.192 133.821 105.021 133.234 104.68C132.647 104.328 132.183 103.843 131.842 103.224C131.511 102.605 131.346 101.875 131.346 101.032C131.346 100.2 131.511 99.4747 131.842 98.856C132.173 98.2267 132.631 97.7413 133.218 97.4C133.815 97.048 134.503 96.872 135.282 96.872C136.05 96.872 136.711 97.048 137.266 97.4C137.831 97.7413 138.263 98.1947 138.562 98.76C138.861 99.3253 139.01 99.9333 139.01 100.584C139.01 100.701 139.005 100.819 138.994 100.936C138.994 101.053 138.994 101.187 138.994 101.336H132.674C132.706 101.944 132.845 102.451 133.09 102.856C133.346 103.251 133.661 103.549 134.034 103.752C134.418 103.955 134.823 104.056 135.25 104.056C135.805 104.056 136.269 103.928 136.642 103.672C137.015 103.416 137.287 103.069 137.458 102.632H138.786C138.573 103.368 138.162 103.981 137.554 104.472C136.957 104.952 136.189 105.192 135.25 105.192ZM135.25 98.008C134.61 98.008 134.039 98.2053 133.538 98.6C133.047 98.984 132.765 99.5493 132.69 100.296H137.682C137.65 99.5813 137.405 99.0213 136.946 98.616C136.487 98.2107 135.922 98.008 135.25 98.008ZM143.832 105.192C142.882 105.192 142.093 104.952 141.464 104.472C140.834 103.992 140.466 103.341 140.36 102.52H141.736C141.821 102.936 142.04 103.299 142.392 103.608C142.754 103.907 143.24 104.056 143.848 104.056C144.413 104.056 144.829 103.939 145.096 103.704C145.362 103.459 145.496 103.171 145.496 102.84C145.496 102.36 145.32 102.04 144.968 101.88C144.626 101.72 144.141 101.576 143.512 101.448C143.085 101.363 142.658 101.24 142.232 101.08C141.805 100.92 141.448 100.696 141.16 100.408C140.872 100.109 140.728 99.72 140.728 99.24C140.728 98.5467 140.984 97.9813 141.496 97.544C142.018 97.096 142.722 96.872 143.608 96.872C144.45 96.872 145.138 97.0853 145.672 97.512C146.216 97.928 146.53 98.5253 146.616 99.304H145.288C145.234 98.8987 145.058 98.584 144.76 98.36C144.472 98.1253 144.082 98.008 143.592 98.008C143.112 98.008 142.738 98.1093 142.472 98.312C142.216 98.5147 142.088 98.7813 142.088 99.112C142.088 99.432 142.253 99.6827 142.584 99.864C142.925 100.045 143.384 100.2 143.96 100.328C144.45 100.435 144.914 100.568 145.352 100.728C145.8 100.877 146.162 101.107 146.44 101.416C146.728 101.715 146.872 102.152 146.872 102.728C146.882 103.443 146.61 104.035 146.056 104.504C145.512 104.963 144.77 105.192 143.832 105.192Z" fill="#F4F4F4"/>
<path d="M173.367 93.8417C172.941 93.4159 172.436 93.0781 171.88 92.8476C171.324 92.6172 170.727 92.4985 170.125 92.4985C169.523 92.4985 168.927 92.6172 168.371 92.8476C167.815 93.0781 167.309 93.4159 166.884 93.8417L166 94.7251L165.117 93.8417C164.257 92.982 163.091 92.499 161.875 92.499C160.66 92.499 159.494 92.982 158.634 93.8417C157.774 94.7015 157.291 95.8675 157.291 97.0834C157.291 98.2993 157.774 99.4653 158.634 100.325L159.517 101.208L166 107.692L172.484 101.208L173.367 100.325C173.793 99.8994 174.131 99.3941 174.361 98.8379C174.592 98.2816 174.71 97.6855 174.71 97.0834C174.71 96.4813 174.592 95.8851 174.361 95.3289C174.131 94.7727 173.793 94.2674 173.367 93.8417Z" stroke="#F4F4F4" stroke-width="1.5" stroke-linecap="round" stroke-linejoin="round"/>
<rect x="6" y="18" width="194" height="48" rx="24" fill="#F4F4F4"/>
<path d="M30.48 47L34.608 35.8H36.032L40.144 47H38.72L37.696 44.12H32.928L31.888 47H30.48ZM33.328 43.032H37.296L35.312 37.496L33.328 43.032ZM44.8915 47.192C44.1022 47.192 43.4088 47.0107 42.8115 46.648C42.2248 46.2853 41.7662 45.7893 41.4355 45.16C41.1155 44.5307 40.9555 43.816 40.9555 43.016C40.9555 42.216 41.1208 41.5067 41.4515 40.888C41.7822 40.2587 42.2408 39.768 42.8275 39.416C43.4142 39.0533 44.1075 38.872 44.9075 38.872C45.5582 38.872 46.1342 39.0053 46.6355 39.272C47.1368 39.5387 47.5262 39.912 47.8035 40.392V35.48H49.1475V47H47.9315L47.8035 45.688C47.5475 46.072 47.1795 46.4187 46.6995 46.728C46.2195 47.0373 45.6168 47.192 44.8915 47.192ZM45.0355 46.024C45.5688 46.024 46.0382 45.9013 46.4435 45.656C46.8595 45.4 47.1795 45.048 47.4035 44.6C47.6382 44.152 47.7555 43.6293 47.7555 43.032C47.7555 42.4347 47.6382 41.912 47.4035 41.464C47.1795 41.016 46.8595 40.6693 46.4435 40.424C46.0382 40.168 45.5688 40.04 45.0355 40.04C44.5128 40.04 44.0435 40.168 43.6275 40.424C43.2222 40.6693 42.9022 41.016 42.6675 41.464C42.4435 41.912 42.3315 42.4347 42.3315 43.032C42.3315 43.6293 42.4435 44.152 42.6675 44.6C42.9022 45.048 43.2222 45.4 43.6275 45.656C44.0435 45.9013 44.5128 46.024 45.0355 46.024ZM54.9384 47.192C54.149 47.192 53.4557 47.0107 52.8584 46.648C52.2717 46.2853 51.813 45.7893 51.4824 45.16C51.1624 44.5307 51.0024 43.816 51.0024 43.016C51.0024 42.216 51.1677 41.5067 51.4984 40.888C51.829 40.2587 52.2877 39.768 52.8744 39.416C53.461 39.0533 54.1544 38.872 54.9544 38.872C55.605 38.872 56.181 39.0053 56.6824 39.272C57.1837 39.5387 57.573 39.912 57.8504 40.392V35.48H59.1944V47H57.9784L57.8504 45.688C57.5944 46.072 57.2264 46.4187 56.7464 46.728C56.2664 47.0373 55.6637 47.192 54.9384 47.192ZM55.0824 46.024C55.6157 46.024 56.085 45.9013 56.4904 45.656C56.9064 45.4 57.2264 45.048 57.4504 44.6C57.685 44.152 57.8024 43.6293 57.8024 43.032C57.8024 42.4347 57.685 41.912 57.4504 41.464C57.2264 41.016 56.9064 40.6693 56.4904 40.424C56.085 40.168 55.6157 40.04 55.0824 40.04C54.5597 40.04 54.0904 40.168 53.6744 40.424C53.269 40.6693 52.949 41.016 52.7144 41.464C52.4904 41.912 52.3784 42.4347 52.3784 43.032C52.3784 43.6293 52.4904 44.152 52.7144 44.6C52.949 45.048 53.269 45.4 53.6744 45.656C54.0904 45.9013 54.5597 46.024 55.0824 46.024ZM68.7556 47C68.0303 47 67.4596 46.824 67.0436 46.472C66.6276 46.12 66.4196 45.4853 66.4196 44.568V40.2H65.0436V39.064H66.4196L66.5956 37.16H67.7636V39.064H70.0996V40.2H67.7636V44.568C67.7636 45.0693 67.865 45.4107 68.0676 45.592C68.2703 45.7627 68.6276 45.848 69.1396 45.848H69.9716V47H68.7556ZM75.2044 47.192C74.4577 47.192 73.7857 47.0213 73.1884 46.68C72.591 46.3387 72.1164 45.8587 71.7644 45.24C71.423 44.6107 71.2524 43.8747 71.2524 43.032C71.2524 42.1893 71.4284 41.4587 71.7804 40.84C72.1324 40.2107 72.607 39.7253 73.2044 39.384C73.8124 39.0427 74.4897 38.872 75.2364 38.872C75.983 38.872 76.655 39.0427 77.2524 39.384C77.8497 39.7253 78.319 40.2107 78.6604 40.84C79.0124 41.4587 79.1884 42.1893 79.1884 43.032C79.1884 43.8747 79.0124 44.6107 78.6604 45.24C78.3084 45.8587 77.8284 46.3387 77.2204 46.68C76.623 47.0213 75.951 47.192 75.2044 47.192ZM75.2044 46.04C75.663 46.04 76.0897 45.928 76.4844 45.704C76.879 45.48 77.199 45.144 77.4444 44.696C77.6897 44.248 77.8124 43.6933 77.8124 43.032C77.8124 42.3707 77.6897 41.816 77.4444 41.368C77.2097 40.92 76.895 40.584 76.5004 40.36C76.1057 40.136 75.6844 40.024 75.2364 40.024C74.7777 40.024 74.351 40.136 73.9564 40.36C73.5617 40.584 73.2417 40.92 72.9964 41.368C72.751 41.816 72.6284 42.3707 72.6284 43.032C72.6284 43.6933 72.751 44.248 72.9964 44.696C73.2417 45.144 73.5564 45.48 73.9404 45.704C74.335 45.928 74.7564 46.04 75.2044 46.04ZM85.7235 47V40.2H84.5235V39.064H85.7235V37.688C85.7235 36.92 85.9155 36.36 86.2995 36.008C86.6835 35.656 87.2435 35.48 87.9795 35.48H88.7795V36.632H88.1875C87.7822 36.632 87.4942 36.7173 87.3235 36.888C87.1528 37.048 87.0675 37.3253 87.0675 37.72V39.064H89.0195V40.2H87.0675V47H85.7235ZM92.9471 47.192C92.2858 47.192 91.7365 47.08 91.2991 46.856C90.8618 46.632 90.5365 46.3333 90.3231 45.96C90.1098 45.5867 90.0031 45.1813 90.0031 44.744C90.0031 43.9333 90.3125 43.3093 90.9311 42.872C91.5498 42.4347 92.3925 42.216 93.4591 42.216H95.6031V42.12C95.6031 41.4267 95.4218 40.904 95.0591 40.552C94.6965 40.1893 94.2111 40.008 93.6031 40.008C93.0805 40.008 92.6271 40.1413 92.2431 40.408C91.8698 40.664 91.6351 41.0427 91.5391 41.544H90.1631C90.2165 40.968 90.4085 40.4827 90.7391 40.088C91.0805 39.6933 91.5018 39.3947 92.0031 39.192C92.5045 38.9787 93.0378 38.872 93.6031 38.872C94.7125 38.872 95.5445 39.1707 96.0991 39.768C96.6645 40.3547 96.9471 41.1387 96.9471 42.12V47H95.7471L95.6671 45.576C95.4431 46.024 95.1125 46.408 94.6751 46.728C94.2485 47.0373 93.6725 47.192 92.9471 47.192ZM93.1551 46.056C93.6671 46.056 94.1045 45.9227 94.4671 45.656C94.8405 45.3893 95.1231 45.0427 95.3151 44.616C95.5071 44.1893 95.6031 43.7413 95.6031 43.272V43.256H93.5711C92.7818 43.256 92.2218 43.3947 91.8911 43.672C91.5711 43.9387 91.4111 44.2747 91.4111 44.68C91.4111 45.096 91.5605 45.432 91.8591 45.688C92.1685 45.9333 92.6005 46.056 93.1551 46.056ZM100.955 47L97.9465 39.064H99.3545L101.739 45.704L104.139 39.064H105.515L102.507 47H100.955ZM110.22 47.192C109.473 47.192 108.801 47.0213 108.204 46.68C107.607 46.3387 107.132 45.8587 106.78 45.24C106.439 44.6107 106.268 43.8747 106.268 43.032C106.268 42.1893 106.444 41.4587 106.796 40.84C107.148 40.2107 107.623 39.7253 108.22 39.384C108.828 39.0427 109.505 38.872 110.252 38.872C110.999 38.872 111.671 39.0427 112.268 39.384C112.865 39.7253 113.335 40.2107 113.676 40.84C114.028 41.4587 114.204 42.1893 114.204 43.032C114.204 43.8747 114.028 44.6107 113.676 45.24C113.324 45.8587 112.844 46.3387 112.236 46.68C111.639 47.0213 110.967 47.192 110.22 47.192ZM110.22 46.04C110.679 46.04 111.105 45.928 111.5 45.704C111.895 45.48 112.215 45.144 112.46 44.696C112.705 44.248 112.828 43.6933 112.828 43.032C112.828 42.3707 112.705 41.816 112.46 41.368C112.225 40.92 111.911 40.584 111.516 40.36C111.121 40.136 110.7 40.024 110.252 40.024C109.793 40.024 109.367 40.136 108.972 40.36C108.577 40.584 108.257 40.92 108.012 41.368C107.767 41.816 107.644 42.3707 107.644 43.032C107.644 43.6933 107.767 44.248 108.012 44.696C108.257 45.144 108.572 45.48 108.956 45.704C109.351 45.928 109.772 46.04 110.22 46.04ZM116.073 47V39.064H117.289L117.401 40.584C117.646 40.0613 118.019 39.6453 118.521 39.336C119.022 39.0267 119.641 38.872 120.377 38.872V40.28H120.009C119.539 40.28 119.107 40.3653 118.713 40.536C118.318 40.696 118.003 40.9733 117.769 41.368C117.534 41.7627 117.417 42.3067 117.417 43V47H116.073ZM122.701 37.304C122.435 37.304 122.211 37.2187 122.029 37.048C121.859 36.8667 121.773 36.6427 121.773 36.376C121.773 36.12 121.859 35.9067 122.029 35.736C122.211 35.5653 122.435 35.48 122.701 35.48C122.957 35.48 123.176 35.5653 123.357 35.736C123.539 35.9067 123.629 36.12 123.629 36.376C123.629 36.6427 123.539 36.8667 123.357 37.048C123.176 37.2187 122.957 37.304 122.701 37.304ZM122.029 47V39.064H123.373V47H122.029ZM128.849 47C128.124 47 127.553 46.824 127.137 46.472C126.721 46.12 126.513 45.4853 126.513 44.568V40.2H125.137V39.064H126.513L126.689 37.16H127.857V39.064H130.193V40.2H127.857V44.568C127.857 45.0693 127.959 45.4107 128.161 45.592C128.364 45.7627 128.721 45.848 129.233 45.848H130.065V47H128.849ZM135.25 47.192C134.493 47.192 133.821 47.0213 133.234 46.68C132.647 46.328 132.183 45.8427 131.842 45.224C131.511 44.6053 131.346 43.8747 131.346 43.032C131.346 42.2 131.511 41.4747 131.842 40.856C132.173 40.2267 132.631 39.7413 133.218 39.4C133.815 39.048 134.503 38.872 135.282 38.872C136.05 38.872 136.711 39.048 137.266 39.4C137.831 39.7413 138.263 40.1947 138.562 40.76C138.861 41.3253 139.01 41.9333 139.01 42.584C139.01 42.7013 139.005 42.8187 138.994 42.936C138.994 43.0533 138.994 43.1867 138.994 43.336H132.674C132.706 43.944 132.845 44.4507 133.09 44.856C133.346 45.2507 133.661 45.5493 134.034 45.752C134.418 45.9547 134.823 46.056 135.25 46.056C135.805 46.056 136.269 45.928 136.642 45.672C137.015 45.416 137.287 45.0693 137.458 44.632H138.786C138.573 45.368 138.162 45.9813 137.554 46.472C136.957 46.952 136.189 47.192 135.25 47.192ZM135.25 40.008C134.61 40.008 134.039 40.2053 133.538 40.6C133.047 40.984 132.765 41.5493 132.69 42.296H137.682C137.65 41.5813 137.405 41.0213 136.946 40.616C136.487 40.2107 135.922 40.008 135.25 40.008ZM143.832 47.192C142.882 47.192 142.093 46.952 141.464 46.472C140.834 45.992 140.466 45.3413 140.36 44.52H141.736C141.821 44.936 142.04 45.2987 142.392 45.608C142.754 45.9067 143.24 46.056 143.848 46.056C144.413 46.056 144.829 45.9387 145.096 45.704C145.362 45.4587 145.496 45.1707 145.496 44.84C145.496 44.36 145.32 44.04 144.968 43.88C144.626 43.72 144.141 43.576 143.512 43.448C143.085 43.3627 142.658 43.24 142.232 43.08C141.805 42.92 141.448 42.696 141.16 42.408C140.872 42.1093 140.728 41.72 140.728 41.24C140.728 40.5467 140.984 39.9813 141.496 39.544C142.018 39.096 142.722 38.872 143.608 38.872C144.45 38.872 145.138 39.0853 145.672 39.512C146.216 39.928 146.53 40.5253 146.616 41.304H145.288C145.234 40.8987 145.058 40.584 144.76 40.36C144.472 40.1253 144.082 40.008 143.592 40.008C143.112 40.008 142.738 40.1093 142.472 40.312C142.216 40.5147 142.088 40.7813 142.088 41.112C142.088 41.432 142.253 41.6827 142.584 41.864C142.925 42.0453 143.384 42.2 143.96 42.328C144.45 42.4347 144.914 42.568 145.352 42.728C145.8 42.8773 146.162 43.1067 146.44 43.416C146.728 43.7147 146.872 44.152 146.872 44.728C146.882 45.4427 146.61 46.0347 146.056 46.504C145.512 46.9627 144.77 47.192 143.832 47.192Z" fill="#242424"/>
<path d="M173.367 35.8417C172.941 35.4159 172.436 35.0781 171.88 34.8476C171.324 34.6172 170.727 34.4985 170.125 34.4985C169.523 34.4985 168.927 34.6172 168.371 34.8476C167.815 35.0781 167.309 35.4159 166.884 35.8417L166 36.7251L165.117 35.8417C164.257 34.982 163.091 34.499 161.875 34.499C160.66 34.499 159.494 34.982 158.634 35.8417C157.774 36.7015 157.291 37.8675 157.291 39.0834C157.291 40.2993 157.774 41.4653 158.634 42.3251L159.517 43.2084L166 49.6917L172.484 43.2084L173.367 42.3251C173.793 41.8994 174.131 41.3941 174.361 40.8379C174.592 40.2816 174.71 39.6855 174.71 39.0834C174.71 38.4813 174.592 37.8851 174.361 37.3289C174.131 36.7727 173.793 36.2674 173.367 35.8417Z" stroke="#242424" stroke-width="1.5" stroke-linecap="round" stroke-linejoin="round"/>
</svg>
