<svg width="268" height="147" viewBox="0 0 268 147" fill="none" xmlns="http://www.w3.org/2000/svg">
<rect x="0.5" y="0.5" width="267" height="146" rx="4.5" stroke="#9747FF" stroke-dasharray="10 5"/>
<rect x="20.5" y="79.5" width="241" height="47" rx="23.5" stroke="#F4F4F4"/>
<path d="M45.184 108V96.8H48.8C49.6747 96.8 50.3893 96.944 50.944 97.232C51.4987 97.52 51.9093 97.9147 52.176 98.416C52.4427 98.9173 52.576 99.472 52.576 100.08C52.576 100.784 52.384 101.419 52 101.984C51.6267 102.549 51.04 102.949 50.24 103.184L52.688 108H51.104L48.832 103.376H48.736H46.528V108H45.184ZM46.528 102.32H48.704C49.568 102.32 50.1973 102.112 50.592 101.696C50.9867 101.28 51.184 100.747 51.184 100.096C51.184 99.4347 50.9867 98.912 50.592 98.528C50.208 98.1333 49.5733 97.936 48.688 97.936H46.528V102.32ZM57.672 108.192C56.9147 108.192 56.2427 108.021 55.656 107.68C55.0693 107.328 54.6053 106.843 54.264 106.224C53.9333 105.605 53.768 104.875 53.768 104.032C53.768 103.2 53.9333 102.475 54.264 101.856C54.5947 101.227 55.0533 100.741 55.64 100.4C56.2373 100.048 56.9253 99.872 57.704 99.872C58.472 99.872 59.1333 100.048 59.688 100.4C60.2533 100.741 60.6853 101.195 60.984 101.76C61.2827 102.325 61.432 102.933 61.432 103.584C61.432 103.701 61.4267 103.819 61.416 103.936C61.416 104.053 61.416 104.187 61.416 104.336H55.096C55.128 104.944 55.2667 105.451 55.512 105.856C55.768 106.251 56.0827 106.549 56.456 106.752C56.84 106.955 57.2453 107.056 57.672 107.056C58.2267 107.056 58.6907 106.928 59.064 106.672C59.4373 106.416 59.7093 106.069 59.88 105.632H61.208C60.9947 106.368 60.584 106.981 59.976 107.472C59.3787 107.952 58.6107 108.192 57.672 108.192ZM57.672 101.008C57.032 101.008 56.4613 101.205 55.96 101.6C55.4693 101.984 55.1867 102.549 55.112 103.296H60.104C60.072 102.581 59.8267 102.021 59.368 101.616C58.9093 101.211 58.344 101.008 57.672 101.008ZM63.2134 108V100.064H64.4294L64.5254 101.216C64.7814 100.789 65.1227 100.459 65.5494 100.224C65.976 99.9893 66.456 99.872 66.9894 99.872C67.6187 99.872 68.1574 100 68.6054 100.256C69.064 100.512 69.416 100.901 69.6614 101.424C69.9387 100.944 70.3174 100.565 70.7974 100.288C71.288 100.011 71.816 99.872 72.3814 99.872C73.3307 99.872 74.088 100.16 74.6534 100.736C75.2187 101.301 75.5014 102.176 75.5014 103.36V108H74.1734V103.504C74.1734 102.683 74.008 102.064 73.6774 101.648C73.3467 101.232 72.872 101.024 72.2534 101.024C71.6134 101.024 71.08 101.275 70.6534 101.776C70.2374 102.267 70.0294 102.971 70.0294 103.888V108H68.6854V103.504C68.6854 102.683 68.52 102.064 68.1894 101.648C67.8587 101.232 67.384 101.024 66.7654 101.024C66.136 101.024 65.608 101.275 65.1814 101.776C64.7654 102.267 64.5574 102.971 64.5574 103.888V108H63.2134ZM81.1419 108.192C80.3952 108.192 79.7232 108.021 79.1259 107.68C78.5285 107.339 78.0539 106.859 77.7019 106.24C77.3605 105.611 77.1899 104.875 77.1899 104.032C77.1899 103.189 77.3659 102.459 77.7179 101.84C78.0699 101.211 78.5445 100.725 79.1419 100.384C79.7499 100.043 80.4272 99.872 81.1739 99.872C81.9205 99.872 82.5925 100.043 83.1899 100.384C83.7872 100.725 84.2565 101.211 84.5979 101.84C84.9499 102.459 85.1259 103.189 85.1259 104.032C85.1259 104.875 84.9499 105.611 84.5979 106.24C84.2459 106.859 83.7659 107.339 83.1579 107.68C82.5605 108.021 81.8885 108.192 81.1419 108.192ZM81.1419 107.04C81.6005 107.04 82.0272 106.928 82.4219 106.704C82.8165 106.48 83.1365 106.144 83.3819 105.696C83.6272 105.248 83.7499 104.693 83.7499 104.032C83.7499 103.371 83.6272 102.816 83.3819 102.368C83.1472 101.92 82.8325 101.584 82.4379 101.36C82.0432 101.136 81.6219 101.024 81.1739 101.024C80.7152 101.024 80.2885 101.136 79.8939 101.36C79.4992 101.584 79.1792 101.92 78.9339 102.368C78.6885 102.816 78.5659 103.371 78.5659 104.032C78.5659 104.693 78.6885 105.248 78.9339 105.696C79.1792 106.144 79.4939 106.48 79.8779 106.704C80.2725 106.928 80.6939 107.04 81.1419 107.04ZM88.8764 108L85.8684 100.064H87.2764L89.6604 106.704L92.0604 100.064H93.4364L90.4284 108H88.8764ZM98.0939 108.192C97.3365 108.192 96.6645 108.021 96.0779 107.68C95.4912 107.328 95.0272 106.843 94.6859 106.224C94.3552 105.605 94.1899 104.875 94.1899 104.032C94.1899 103.2 94.3552 102.475 94.6859 101.856C95.0165 101.227 95.4752 100.741 96.0619 100.4C96.6592 100.048 97.3472 99.872 98.1259 99.872C98.8939 99.872 99.5552 100.048 100.11 100.4C100.675 100.741 101.107 101.195 101.406 101.76C101.705 102.325 101.854 102.933 101.854 103.584C101.854 103.701 101.849 103.819 101.838 103.936C101.838 104.053 101.838 104.187 101.838 104.336H95.5179C95.5499 104.944 95.6885 105.451 95.9339 105.856C96.1899 106.251 96.5045 106.549 96.8779 106.752C97.2619 106.955 97.6672 107.056 98.0939 107.056C98.6485 107.056 99.1125 106.928 99.4859 106.672C99.8592 106.416 100.131 106.069 100.302 105.632H101.63C101.417 106.368 101.006 106.981 100.398 107.472C99.8005 107.952 99.0325 108.192 98.0939 108.192ZM98.0939 101.008C97.4539 101.008 96.8832 101.205 96.3819 101.6C95.8912 101.984 95.6085 102.549 95.5339 103.296H100.526C100.494 102.581 100.249 102.021 99.7899 101.616C99.3312 101.211 98.7659 101.008 98.0939 101.008ZM108.302 108V101.2H107.102V100.064H108.302V98.688C108.302 97.92 108.494 97.36 108.878 97.008C109.262 96.656 109.822 96.48 110.558 96.48H111.358V97.632H110.766C110.36 97.632 110.072 97.7173 109.902 97.888C109.731 98.048 109.646 98.3253 109.646 98.72V100.064H111.598V101.2H109.646V108H108.302ZM113.198 108V100.064H114.414L114.526 101.584C114.771 101.061 115.144 100.645 115.646 100.336C116.147 100.027 116.766 99.872 117.502 99.872V101.28H117.134C116.664 101.28 116.232 101.365 115.838 101.536C115.443 101.696 115.128 101.973 114.894 102.368C114.659 102.763 114.542 103.307 114.542 104V108H113.198ZM122.329 108.192C121.583 108.192 120.911 108.021 120.313 107.68C119.716 107.339 119.241 106.859 118.889 106.24C118.548 105.611 118.377 104.875 118.377 104.032C118.377 103.189 118.553 102.459 118.905 101.84C119.257 101.211 119.732 100.725 120.329 100.384C120.937 100.043 121.615 99.872 122.361 99.872C123.108 99.872 123.78 100.043 124.377 100.384C124.975 100.725 125.444 101.211 125.785 101.84C126.137 102.459 126.313 103.189 126.313 104.032C126.313 104.875 126.137 105.611 125.785 106.24C125.433 106.859 124.953 107.339 124.345 107.68C123.748 108.021 123.076 108.192 122.329 108.192ZM122.329 107.04C122.788 107.04 123.215 106.928 123.609 106.704C124.004 106.48 124.324 106.144 124.569 105.696C124.815 105.248 124.937 104.693 124.937 104.032C124.937 103.371 124.815 102.816 124.569 102.368C124.335 101.92 124.02 101.584 123.625 101.36C123.231 101.136 122.809 101.024 122.361 101.024C121.903 101.024 121.476 101.136 121.081 101.36C120.687 101.584 120.367 101.92 120.121 102.368C119.876 102.816 119.753 103.371 119.753 104.032C119.753 104.693 119.876 105.248 120.121 105.696C120.367 106.144 120.681 106.48 121.065 106.704C121.46 106.928 121.881 107.04 122.329 107.04ZM128.182 108V100.064H129.398L129.494 101.216C129.75 100.789 130.091 100.459 130.518 100.224C130.945 99.9893 131.425 99.872 131.958 99.872C132.587 99.872 133.126 100 133.574 100.256C134.033 100.512 134.385 100.901 134.63 101.424C134.907 100.944 135.286 100.565 135.766 100.288C136.257 100.011 136.785 99.872 137.35 99.872C138.299 99.872 139.057 100.16 139.622 100.736C140.187 101.301 140.47 102.176 140.47 103.36V108H139.142V103.504C139.142 102.683 138.977 102.064 138.646 101.648C138.315 101.232 137.841 101.024 137.222 101.024C136.582 101.024 136.049 101.275 135.622 101.776C135.206 102.267 134.998 102.971 134.998 103.888V108H133.654V103.504C133.654 102.683 133.489 102.064 133.158 101.648C132.827 101.232 132.353 101.024 131.734 101.024C131.105 101.024 130.577 101.275 130.15 101.776C129.734 102.267 129.526 102.971 129.526 103.888V108H128.182ZM147.161 108V101.2H145.961V100.064H147.161V98.688C147.161 97.92 147.353 97.36 147.737 97.008C148.121 96.656 148.681 96.48 149.417 96.48H150.217V97.632H149.625C149.22 97.632 148.932 97.7173 148.761 97.888C148.59 98.048 148.505 98.3253 148.505 98.72V100.064H150.457V101.2H148.505V108H147.161ZM154.385 108.192C153.723 108.192 153.174 108.08 152.737 107.856C152.299 107.632 151.974 107.333 151.761 106.96C151.547 106.587 151.441 106.181 151.441 105.744C151.441 104.933 151.75 104.309 152.369 103.872C152.987 103.435 153.83 103.216 154.897 103.216H157.041V103.12C157.041 102.427 156.859 101.904 156.497 101.552C156.134 101.189 155.649 101.008 155.041 101.008C154.518 101.008 154.065 101.141 153.681 101.408C153.307 101.664 153.073 102.043 152.977 102.544H151.601C151.654 101.968 151.846 101.483 152.177 101.088C152.518 100.693 152.939 100.395 153.441 100.192C153.942 99.9787 154.475 99.872 155.041 99.872C156.15 99.872 156.982 100.171 157.537 100.768C158.102 101.355 158.385 102.139 158.385 103.12V108H157.185L157.105 106.576C156.881 107.024 156.55 107.408 156.113 107.728C155.686 108.037 155.11 108.192 154.385 108.192ZM154.593 107.056C155.105 107.056 155.542 106.923 155.905 106.656C156.278 106.389 156.561 106.043 156.753 105.616C156.945 105.189 157.041 104.741 157.041 104.272V104.256H155.009C154.219 104.256 153.659 104.395 153.329 104.672C153.009 104.939 152.849 105.275 152.849 105.68C152.849 106.096 152.998 106.432 153.297 106.688C153.606 106.933 154.038 107.056 154.593 107.056ZM162.392 108L159.384 100.064H160.792L163.176 106.704L165.576 100.064H166.952L163.944 108H162.392ZM171.658 108.192C170.911 108.192 170.239 108.021 169.642 107.68C169.044 107.339 168.57 106.859 168.218 106.24C167.876 105.611 167.706 104.875 167.706 104.032C167.706 103.189 167.882 102.459 168.234 101.84C168.586 101.211 169.06 100.725 169.658 100.384C170.266 100.043 170.943 99.872 171.69 99.872C172.436 99.872 173.108 100.043 173.706 100.384C174.303 100.725 174.772 101.211 175.114 101.84C175.466 102.459 175.642 103.189 175.642 104.032C175.642 104.875 175.466 105.611 175.114 106.24C174.762 106.859 174.282 107.339 173.674 107.68C173.076 108.021 172.404 108.192 171.658 108.192ZM171.658 107.04C172.116 107.04 172.543 106.928 172.938 106.704C173.332 106.48 173.652 106.144 173.898 105.696C174.143 105.248 174.266 104.693 174.266 104.032C174.266 103.371 174.143 102.816 173.898 102.368C173.663 101.92 173.348 101.584 172.954 101.36C172.559 101.136 172.138 101.024 171.69 101.024C171.231 101.024 170.804 101.136 170.41 101.36C170.015 101.584 169.695 101.92 169.45 102.368C169.204 102.816 169.082 103.371 169.082 104.032C169.082 104.693 169.204 105.248 169.45 105.696C169.695 106.144 170.01 106.48 170.394 106.704C170.788 106.928 171.21 107.04 171.658 107.04ZM177.51 108V100.064H178.726L178.838 101.584C179.084 101.061 179.457 100.645 179.958 100.336C180.46 100.027 181.078 99.872 181.814 99.872V101.28H181.446C180.977 101.28 180.545 101.365 180.15 101.536C179.756 101.696 179.441 101.973 179.206 102.368C178.972 102.763 178.854 103.307 178.854 104V108H177.51ZM184.139 98.304C183.872 98.304 183.648 98.2187 183.467 98.048C183.296 97.8667 183.211 97.6427 183.211 97.376C183.211 97.12 183.296 96.9067 183.467 96.736C183.648 96.5653 183.872 96.48 184.139 96.48C184.395 96.48 184.613 96.5653 184.795 96.736C184.976 96.9067 185.067 97.12 185.067 97.376C185.067 97.6427 184.976 97.8667 184.795 98.048C184.613 98.2187 184.395 98.304 184.139 98.304ZM183.467 108V100.064H184.811V108H183.467ZM190.287 108C189.562 108 188.991 107.824 188.575 107.472C188.159 107.12 187.951 106.485 187.951 105.568V101.2H186.575V100.064H187.951L188.127 98.16H189.295V100.064H191.631V101.2H189.295V105.568C189.295 106.069 189.396 106.411 189.599 106.592C189.802 106.763 190.159 106.848 190.671 106.848H191.503V108H190.287ZM196.688 108.192C195.93 108.192 195.258 108.021 194.672 107.68C194.085 107.328 193.621 106.843 193.28 106.224C192.949 105.605 192.784 104.875 192.784 104.032C192.784 103.2 192.949 102.475 193.28 101.856C193.61 101.227 194.069 100.741 194.656 100.4C195.253 100.048 195.941 99.872 196.72 99.872C197.488 99.872 198.149 100.048 198.704 100.4C199.269 100.741 199.701 101.195 200 101.76C200.298 102.325 200.448 102.933 200.448 103.584C200.448 103.701 200.442 103.819 200.432 103.936C200.432 104.053 200.432 104.187 200.432 104.336H194.112C194.144 104.944 194.282 105.451 194.528 105.856C194.784 106.251 195.098 106.549 195.472 106.752C195.856 106.955 196.261 107.056 196.688 107.056C197.242 107.056 197.706 106.928 198.08 106.672C198.453 106.416 198.725 106.069 198.896 105.632H200.224C200.01 106.368 199.6 106.981 198.992 107.472C198.394 107.952 197.626 108.192 196.688 108.192ZM196.688 101.008C196.048 101.008 195.477 101.205 194.976 101.6C194.485 101.984 194.202 102.549 194.128 103.296H199.12C199.088 102.581 198.842 102.021 198.384 101.616C197.925 101.211 197.36 101.008 196.688 101.008ZM205.269 108.192C204.32 108.192 203.53 107.952 202.901 107.472C202.272 106.992 201.904 106.341 201.797 105.52H203.173C203.258 105.936 203.477 106.299 203.829 106.608C204.192 106.907 204.677 107.056 205.285 107.056C205.85 107.056 206.266 106.939 206.533 106.704C206.8 106.459 206.933 106.171 206.933 105.84C206.933 105.36 206.757 105.04 206.405 104.88C206.064 104.72 205.578 104.576 204.949 104.448C204.522 104.363 204.096 104.24 203.669 104.08C203.242 103.92 202.885 103.696 202.597 103.408C202.309 103.109 202.165 102.72 202.165 102.24C202.165 101.547 202.421 100.981 202.933 100.544C203.456 100.096 204.16 99.872 205.045 99.872C205.888 99.872 206.576 100.085 207.109 100.512C207.653 100.928 207.968 101.525 208.053 102.304H206.725C206.672 101.899 206.496 101.584 206.197 101.36C205.909 101.125 205.52 101.008 205.029 101.008C204.549 101.008 204.176 101.109 203.909 101.312C203.653 101.515 203.525 101.781 203.525 102.112C203.525 102.432 203.69 102.683 204.021 102.864C204.362 103.045 204.821 103.2 205.397 103.328C205.888 103.435 206.352 103.568 206.789 103.728C207.237 103.877 207.6 104.107 207.877 104.416C208.165 104.715 208.309 105.152 208.309 105.728C208.32 106.443 208.048 107.035 207.493 107.504C206.949 107.963 206.208 108.192 205.269 108.192Z" fill="#F4F4F4"/>
<path d="M231.333 98V97.3333C231.333 96.3999 231.333 95.9332 231.152 95.5766C230.992 95.263 230.737 95.0081 230.423 94.8483C230.067 94.6666 229.6 94.6666 228.667 94.6666H227.333C226.4 94.6666 225.933 94.6666 225.577 94.8483C225.263 95.0081 225.008 95.263 224.848 95.5766C224.667 95.9332 224.667 96.3999 224.667 97.3333V98M226.333 102.583V106.75M229.667 102.583V106.75M220.5 98H235.5M233.833 98V107.333C233.833 108.733 233.833 109.433 233.561 109.968C233.321 110.439 232.939 110.821 232.468 111.061C231.934 111.333 231.233 111.333 229.833 111.333H226.167C224.767 111.333 224.066 111.333 223.532 111.061C223.061 110.821 222.679 110.439 222.439 109.968C222.167 109.433 222.167 108.733 222.167 107.333V98" stroke="#F4F4F4" stroke-width="1.5" stroke-linecap="round" stroke-linejoin="round"/>
<rect x="20" y="20" width="242" height="48" rx="24" fill="#F4F4F4"/>
<path d="M45.184 49V37.8H48.8C49.6747 37.8 50.3893 37.944 50.944 38.232C51.4987 38.52 51.9093 38.9147 52.176 39.416C52.4427 39.9173 52.576 40.472 52.576 41.08C52.576 41.784 52.384 42.4187 52 42.984C51.6267 43.5493 51.04 43.9493 50.24 44.184L52.688 49H51.104L48.832 44.376H48.736H46.528V49H45.184ZM46.528 43.32H48.704C49.568 43.32 50.1973 43.112 50.592 42.696C50.9867 42.28 51.184 41.7467 51.184 41.096C51.184 40.4347 50.9867 39.912 50.592 39.528C50.208 39.1333 49.5733 38.936 48.688 38.936H46.528V43.32ZM57.672 49.192C56.9147 49.192 56.2427 49.0213 55.656 48.68C55.0693 48.328 54.6053 47.8427 54.264 47.224C53.9333 46.6053 53.768 45.8747 53.768 45.032C53.768 44.2 53.9333 43.4747 54.264 42.856C54.5947 42.2267 55.0533 41.7413 55.64 41.4C56.2373 41.048 56.9253 40.872 57.704 40.872C58.472 40.872 59.1333 41.048 59.688 41.4C60.2533 41.7413 60.6853 42.1947 60.984 42.76C61.2827 43.3253 61.432 43.9333 61.432 44.584C61.432 44.7013 61.4267 44.8187 61.416 44.936C61.416 45.0533 61.416 45.1867 61.416 45.336H55.096C55.128 45.944 55.2667 46.4507 55.512 46.856C55.768 47.2507 56.0827 47.5493 56.456 47.752C56.84 47.9547 57.2453 48.056 57.672 48.056C58.2267 48.056 58.6907 47.928 59.064 47.672C59.4373 47.416 59.7093 47.0693 59.88 46.632H61.208C60.9947 47.368 60.584 47.9813 59.976 48.472C59.3787 48.952 58.6107 49.192 57.672 49.192ZM57.672 42.008C57.032 42.008 56.4613 42.2053 55.96 42.6C55.4693 42.984 55.1867 43.5493 55.112 44.296H60.104C60.072 43.5813 59.8267 43.0213 59.368 42.616C58.9093 42.2107 58.344 42.008 57.672 42.008ZM63.2134 49V41.064H64.4294L64.5254 42.216C64.7814 41.7893 65.1227 41.4587 65.5494 41.224C65.976 40.9893 66.456 40.872 66.9894 40.872C67.6187 40.872 68.1574 41 68.6054 41.256C69.064 41.512 69.416 41.9013 69.6614 42.424C69.9387 41.944 70.3174 41.5653 70.7974 41.288C71.288 41.0107 71.816 40.872 72.3814 40.872C73.3307 40.872 74.088 41.16 74.6534 41.736C75.2187 42.3013 75.5014 43.176 75.5014 44.36V49H74.1734V44.504C74.1734 43.6827 74.008 43.064 73.6774 42.648C73.3467 42.232 72.872 42.024 72.2534 42.024C71.6134 42.024 71.08 42.2747 70.6534 42.776C70.2374 43.2667 70.0294 43.9707 70.0294 44.888V49H68.6854V44.504C68.6854 43.6827 68.52 43.064 68.1894 42.648C67.8587 42.232 67.384 42.024 66.7654 42.024C66.136 42.024 65.608 42.2747 65.1814 42.776C64.7654 43.2667 64.5574 43.9707 64.5574 44.888V49H63.2134ZM81.1419 49.192C80.3952 49.192 79.7232 49.0213 79.1259 48.68C78.5285 48.3387 78.0539 47.8587 77.7019 47.24C77.3605 46.6107 77.1899 45.8747 77.1899 45.032C77.1899 44.1893 77.3659 43.4587 77.7179 42.84C78.0699 42.2107 78.5445 41.7253 79.1419 41.384C79.7499 41.0427 80.4272 40.872 81.1739 40.872C81.9205 40.872 82.5925 41.0427 83.1899 41.384C83.7872 41.7253 84.2565 42.2107 84.5979 42.84C84.9499 43.4587 85.1259 44.1893 85.1259 45.032C85.1259 45.8747 84.9499 46.6107 84.5979 47.24C84.2459 47.8587 83.7659 48.3387 83.1579 48.68C82.5605 49.0213 81.8885 49.192 81.1419 49.192ZM81.1419 48.04C81.6005 48.04 82.0272 47.928 82.4219 47.704C82.8165 47.48 83.1365 47.144 83.3819 46.696C83.6272 46.248 83.7499 45.6933 83.7499 45.032C83.7499 44.3707 83.6272 43.816 83.3819 43.368C83.1472 42.92 82.8325 42.584 82.4379 42.36C82.0432 42.136 81.6219 42.024 81.1739 42.024C80.7152 42.024 80.2885 42.136 79.8939 42.36C79.4992 42.584 79.1792 42.92 78.9339 43.368C78.6885 43.816 78.5659 44.3707 78.5659 45.032C78.5659 45.6933 78.6885 46.248 78.9339 46.696C79.1792 47.144 79.4939 47.48 79.8779 47.704C80.2725 47.928 80.6939 48.04 81.1419 48.04ZM88.8764 49L85.8684 41.064H87.2764L89.6604 47.704L92.0604 41.064H93.4364L90.4284 49H88.8764ZM98.0939 49.192C97.3365 49.192 96.6645 49.0213 96.0779 48.68C95.4912 48.328 95.0272 47.8427 94.6859 47.224C94.3552 46.6053 94.1899 45.8747 94.1899 45.032C94.1899 44.2 94.3552 43.4747 94.6859 42.856C95.0165 42.2267 95.4752 41.7413 96.0619 41.4C96.6592 41.048 97.3472 40.872 98.1259 40.872C98.8939 40.872 99.5552 41.048 100.11 41.4C100.675 41.7413 101.107 42.1947 101.406 42.76C101.705 43.3253 101.854 43.9333 101.854 44.584C101.854 44.7013 101.849 44.8187 101.838 44.936C101.838 45.0533 101.838 45.1867 101.838 45.336H95.5179C95.5499 45.944 95.6885 46.4507 95.9339 46.856C96.1899 47.2507 96.5045 47.5493 96.8779 47.752C97.2619 47.9547 97.6672 48.056 98.0939 48.056C98.6485 48.056 99.1125 47.928 99.4859 47.672C99.8592 47.416 100.131 47.0693 100.302 46.632H101.63C101.417 47.368 101.006 47.9813 100.398 48.472C99.8005 48.952 99.0325 49.192 98.0939 49.192ZM98.0939 42.008C97.4539 42.008 96.8832 42.2053 96.3819 42.6C95.8912 42.984 95.6085 43.5493 95.5339 44.296H100.526C100.494 43.5813 100.249 43.0213 99.7899 42.616C99.3312 42.2107 98.7659 42.008 98.0939 42.008ZM108.302 49V42.2H107.102V41.064H108.302V39.688C108.302 38.92 108.494 38.36 108.878 38.008C109.262 37.656 109.822 37.48 110.558 37.48H111.358V38.632H110.766C110.36 38.632 110.072 38.7173 109.902 38.888C109.731 39.048 109.646 39.3253 109.646 39.72V41.064H111.598V42.2H109.646V49H108.302ZM113.198 49V41.064H114.414L114.526 42.584C114.771 42.0613 115.144 41.6453 115.646 41.336C116.147 41.0267 116.766 40.872 117.502 40.872V42.28H117.134C116.664 42.28 116.232 42.3653 115.838 42.536C115.443 42.696 115.128 42.9733 114.894 43.368C114.659 43.7627 114.542 44.3067 114.542 45V49H113.198ZM122.329 49.192C121.583 49.192 120.911 49.0213 120.313 48.68C119.716 48.3387 119.241 47.8587 118.889 47.24C118.548 46.6107 118.377 45.8747 118.377 45.032C118.377 44.1893 118.553 43.4587 118.905 42.84C119.257 42.2107 119.732 41.7253 120.329 41.384C120.937 41.0427 121.615 40.872 122.361 40.872C123.108 40.872 123.78 41.0427 124.377 41.384C124.975 41.7253 125.444 42.2107 125.785 42.84C126.137 43.4587 126.313 44.1893 126.313 45.032C126.313 45.8747 126.137 46.6107 125.785 47.24C125.433 47.8587 124.953 48.3387 124.345 48.68C123.748 49.0213 123.076 49.192 122.329 49.192ZM122.329 48.04C122.788 48.04 123.215 47.928 123.609 47.704C124.004 47.48 124.324 47.144 124.569 46.696C124.815 46.248 124.937 45.6933 124.937 45.032C124.937 44.3707 124.815 43.816 124.569 43.368C124.335 42.92 124.02 42.584 123.625 42.36C123.231 42.136 122.809 42.024 122.361 42.024C121.903 42.024 121.476 42.136 121.081 42.36C120.687 42.584 120.367 42.92 120.121 43.368C119.876 43.816 119.753 44.3707 119.753 45.032C119.753 45.6933 119.876 46.248 120.121 46.696C120.367 47.144 120.681 47.48 121.065 47.704C121.46 47.928 121.881 48.04 122.329 48.04ZM128.182 49V41.064H129.398L129.494 42.216C129.75 41.7893 130.091 41.4587 130.518 41.224C130.945 40.9893 131.425 40.872 131.958 40.872C132.587 40.872 133.126 41 133.574 41.256C134.033 41.512 134.385 41.9013 134.63 42.424C134.907 41.944 135.286 41.5653 135.766 41.288C136.257 41.0107 136.785 40.872 137.35 40.872C138.299 40.872 139.057 41.16 139.622 41.736C140.187 42.3013 140.47 43.176 140.47 44.36V49H139.142V44.504C139.142 43.6827 138.977 43.064 138.646 42.648C138.315 42.232 137.841 42.024 137.222 42.024C136.582 42.024 136.049 42.2747 135.622 42.776C135.206 43.2667 134.998 43.9707 134.998 44.888V49H133.654V44.504C133.654 43.6827 133.489 43.064 133.158 42.648C132.827 42.232 132.353 42.024 131.734 42.024C131.105 42.024 130.577 42.2747 130.15 42.776C129.734 43.2667 129.526 43.9707 129.526 44.888V49H128.182ZM147.161 49V42.2H145.961V41.064H147.161V39.688C147.161 38.92 147.353 38.36 147.737 38.008C148.121 37.656 148.681 37.48 149.417 37.48H150.217V38.632H149.625C149.22 38.632 148.932 38.7173 148.761 38.888C148.59 39.048 148.505 39.3253 148.505 39.72V41.064H150.457V42.2H148.505V49H147.161ZM154.385 49.192C153.723 49.192 153.174 49.08 152.737 48.856C152.299 48.632 151.974 48.3333 151.761 47.96C151.547 47.5867 151.441 47.1813 151.441 46.744C151.441 45.9333 151.75 45.3093 152.369 44.872C152.987 44.4347 153.83 44.216 154.897 44.216H157.041V44.12C157.041 43.4267 156.859 42.904 156.497 42.552C156.134 42.1893 155.649 42.008 155.041 42.008C154.518 42.008 154.065 42.1413 153.681 42.408C153.307 42.664 153.073 43.0427 152.977 43.544H151.601C151.654 42.968 151.846 42.4827 152.177 42.088C152.518 41.6933 152.939 41.3947 153.441 41.192C153.942 40.9787 154.475 40.872 155.041 40.872C156.15 40.872 156.982 41.1707 157.537 41.768C158.102 42.3547 158.385 43.1387 158.385 44.12V49H157.185L157.105 47.576C156.881 48.024 156.55 48.408 156.113 48.728C155.686 49.0373 155.11 49.192 154.385 49.192ZM154.593 48.056C155.105 48.056 155.542 47.9227 155.905 47.656C156.278 47.3893 156.561 47.0427 156.753 46.616C156.945 46.1893 157.041 45.7413 157.041 45.272V45.256H155.009C154.219 45.256 153.659 45.3947 153.329 45.672C153.009 45.9387 152.849 46.2747 152.849 46.68C152.849 47.096 152.998 47.432 153.297 47.688C153.606 47.9333 154.038 48.056 154.593 48.056ZM162.392 49L159.384 41.064H160.792L163.176 47.704L165.576 41.064H166.952L163.944 49H162.392ZM171.658 49.192C170.911 49.192 170.239 49.0213 169.642 48.68C169.044 48.3387 168.57 47.8587 168.218 47.24C167.876 46.6107 167.706 45.8747 167.706 45.032C167.706 44.1893 167.882 43.4587 168.234 42.84C168.586 42.2107 169.06 41.7253 169.658 41.384C170.266 41.0427 170.943 40.872 171.69 40.872C172.436 40.872 173.108 41.0427 173.706 41.384C174.303 41.7253 174.772 42.2107 175.114 42.84C175.466 43.4587 175.642 44.1893 175.642 45.032C175.642 45.8747 175.466 46.6107 175.114 47.24C174.762 47.8587 174.282 48.3387 173.674 48.68C173.076 49.0213 172.404 49.192 171.658 49.192ZM171.658 48.04C172.116 48.04 172.543 47.928 172.938 47.704C173.332 47.48 173.652 47.144 173.898 46.696C174.143 46.248 174.266 45.6933 174.266 45.032C174.266 44.3707 174.143 43.816 173.898 43.368C173.663 42.92 173.348 42.584 172.954 42.36C172.559 42.136 172.138 42.024 171.69 42.024C171.231 42.024 170.804 42.136 170.41 42.36C170.015 42.584 169.695 42.92 169.45 43.368C169.204 43.816 169.082 44.3707 169.082 45.032C169.082 45.6933 169.204 46.248 169.45 46.696C169.695 47.144 170.01 47.48 170.394 47.704C170.788 47.928 171.21 48.04 171.658 48.04ZM177.51 49V41.064H178.726L178.838 42.584C179.084 42.0613 179.457 41.6453 179.958 41.336C180.46 41.0267 181.078 40.872 181.814 40.872V42.28H181.446C180.977 42.28 180.545 42.3653 180.15 42.536C179.756 42.696 179.441 42.9733 179.206 43.368C178.972 43.7627 178.854 44.3067 178.854 45V49H177.51ZM184.139 39.304C183.872 39.304 183.648 39.2187 183.467 39.048C183.296 38.8667 183.211 38.6427 183.211 38.376C183.211 38.12 183.296 37.9067 183.467 37.736C183.648 37.5653 183.872 37.48 184.139 37.48C184.395 37.48 184.613 37.5653 184.795 37.736C184.976 37.9067 185.067 38.12 185.067 38.376C185.067 38.6427 184.976 38.8667 184.795 39.048C184.613 39.2187 184.395 39.304 184.139 39.304ZM183.467 49V41.064H184.811V49H183.467ZM190.287 49C189.562 49 188.991 48.824 188.575 48.472C188.159 48.12 187.951 47.4853 187.951 46.568V42.2H186.575V41.064H187.951L188.127 39.16H189.295V41.064H191.631V42.2H189.295V46.568C189.295 47.0693 189.396 47.4107 189.599 47.592C189.802 47.7627 190.159 47.848 190.671 47.848H191.503V49H190.287ZM196.688 49.192C195.93 49.192 195.258 49.0213 194.672 48.68C194.085 48.328 193.621 47.8427 193.28 47.224C192.949 46.6053 192.784 45.8747 192.784 45.032C192.784 44.2 192.949 43.4747 193.28 42.856C193.61 42.2267 194.069 41.7413 194.656 41.4C195.253 41.048 195.941 40.872 196.72 40.872C197.488 40.872 198.149 41.048 198.704 41.4C199.269 41.7413 199.701 42.1947 200 42.76C200.298 43.3253 200.448 43.9333 200.448 44.584C200.448 44.7013 200.442 44.8187 200.432 44.936C200.432 45.0533 200.432 45.1867 200.432 45.336H194.112C194.144 45.944 194.282 46.4507 194.528 46.856C194.784 47.2507 195.098 47.5493 195.472 47.752C195.856 47.9547 196.261 48.056 196.688 48.056C197.242 48.056 197.706 47.928 198.08 47.672C198.453 47.416 198.725 47.0693 198.896 46.632H200.224C200.01 47.368 199.6 47.9813 198.992 48.472C198.394 48.952 197.626 49.192 196.688 49.192ZM196.688 42.008C196.048 42.008 195.477 42.2053 194.976 42.6C194.485 42.984 194.202 43.5493 194.128 44.296H199.12C199.088 43.5813 198.842 43.0213 198.384 42.616C197.925 42.2107 197.36 42.008 196.688 42.008ZM205.269 49.192C204.32 49.192 203.53 48.952 202.901 48.472C202.272 47.992 201.904 47.3413 201.797 46.52H203.173C203.258 46.936 203.477 47.2987 203.829 47.608C204.192 47.9067 204.677 48.056 205.285 48.056C205.85 48.056 206.266 47.9387 206.533 47.704C206.8 47.4587 206.933 47.1707 206.933 46.84C206.933 46.36 206.757 46.04 206.405 45.88C206.064 45.72 205.578 45.576 204.949 45.448C204.522 45.3627 204.096 45.24 203.669 45.08C203.242 44.92 202.885 44.696 202.597 44.408C202.309 44.1093 202.165 43.72 202.165 43.24C202.165 42.5467 202.421 41.9813 202.933 41.544C203.456 41.096 204.16 40.872 205.045 40.872C205.888 40.872 206.576 41.0853 207.109 41.512C207.653 41.928 207.968 42.5253 208.053 43.304H206.725C206.672 42.8987 206.496 42.584 206.197 42.36C205.909 42.1253 205.52 42.008 205.029 42.008C204.549 42.008 204.176 42.1093 203.909 42.312C203.653 42.5147 203.525 42.7813 203.525 43.112C203.525 43.432 203.69 43.6827 204.021 43.864C204.362 44.0453 204.821 44.2 205.397 44.328C205.888 44.4347 206.352 44.568 206.789 44.728C207.237 44.8773 207.6 45.1067 207.877 45.416C208.165 45.7147 208.309 46.152 208.309 46.728C208.32 47.4427 208.048 48.0347 207.493 48.504C206.949 48.9627 206.208 49.192 205.269 49.192Z" fill="#242424"/>
<path d="M231.333 39V38.3333C231.333 37.3999 231.333 36.9332 231.152 36.5766C230.992 36.263 230.737 36.0081 230.423 35.8483C230.067 35.6666 229.6 35.6666 228.667 35.6666H227.333C226.4 35.6666 225.933 35.6666 225.577 35.8483C225.263 36.0081 225.008 36.263 224.848 36.5766C224.667 36.9332 224.667 37.3999 224.667 38.3333V39M226.333 43.5833V47.75M229.667 43.5833V47.75M220.5 39H235.5M233.833 39V48.3333C233.833 49.7334 233.833 50.4335 233.561 50.9683C233.321 51.4387 232.939 51.8211 232.468 52.0608C231.934 52.3333 231.233 52.3333 229.833 52.3333H226.167C224.767 52.3333 224.066 52.3333 223.532 52.0608C223.061 51.8211 222.679 51.4387 222.439 50.9683C222.167 50.4335 222.167 49.7334 222.167 48.3333V39" stroke="#242424" stroke-width="1.5" stroke-linecap="round" stroke-linejoin="round"/>
</svg>
