<svg width="61" height="13" viewBox="0 0 61 13" fill="none" xmlns="http://www.w3.org/2000/svg">
<path d="M-3.12328e-05 12.6V-2.52724e-05H4.42797C5.31597 -2.52724e-05 6.04797 0.143975 6.62397 0.431975C7.21197 0.707975 7.64997 1.09197 7.93797 1.58397C8.22597 2.06397 8.36997 2.60398 8.36997 3.20398C8.36997 4.01998 8.14797 4.66198 7.70397 5.12998C7.27197 5.59798 6.74997 5.92198 6.13797 6.10198C6.60597 6.18598 7.03197 6.37198 7.41597 6.65998C7.79997 6.94798 8.09997 7.30798 8.31597 7.73998C8.54397 8.17198 8.65797 8.64598 8.65797 9.16198C8.65797 9.79798 8.50197 10.38 8.18997 10.908C7.87797 11.424 7.41597 11.838 6.80397 12.15C6.19197 12.45 5.44797 12.6 4.57197 12.6H-3.12328e-05ZM1.51197 5.50798H4.31997C5.12397 5.50798 5.74197 5.32198 6.17397 4.94998C6.60597 4.56598 6.82197 4.03798 6.82197 3.36598C6.82197 2.72997 6.60597 2.21997 6.17397 1.83597C5.75397 1.45197 5.11797 1.25997 4.26597 1.25997H1.51197V5.50798ZM1.51197 11.34H4.40997C5.27397 11.34 5.93997 11.142 6.40797 10.746C6.87597 10.338 7.10997 9.77398 7.10997 9.05398C7.10997 8.34598 6.86397 7.78198 6.37197 7.36198C5.87997 6.92998 5.21397 6.71398 4.37397 6.71398H1.51197V11.34ZM13.6361 12.816C12.5801 12.816 11.7401 12.498 11.1161 11.862C10.4921 11.214 10.1801 10.224 10.1801 8.89198V3.67198H11.6921V8.72998C11.6921 10.59 12.4541 11.52 13.9781 11.52C14.7581 11.52 15.4001 11.244 15.9041 10.692C16.4201 10.128 16.6781 9.32998 16.6781 8.29798V3.67198H18.1901V12.6H16.8221L16.7141 10.998C16.4381 11.562 16.0241 12.006 15.4721 12.33C14.9321 12.654 14.3201 12.816 13.6361 12.816ZM23.8469 12.6C23.0309 12.6 22.3889 12.402 21.9209 12.006C21.4529 11.61 21.2189 10.896 21.2189 9.86398V4.94998H19.6709V3.67198H21.2189L21.4169 1.52998H22.7309V3.67198H25.3589V4.94998H22.7309V9.86398C22.7309 10.428 22.8449 10.812 23.0729 11.016C23.3009 11.208 23.7029 11.304 24.2789 11.304H25.2149V12.6H23.8469ZM30.4478 12.6C29.6318 12.6 28.9898 12.402 28.5218 12.006C28.0538 11.61 27.8198 10.896 27.8198 9.86398V4.94998H26.2718V3.67198H27.8198L28.0178 1.52998H29.3318V3.67198H31.9598V4.94998H29.3318V9.86398C29.3318 10.428 29.4458 10.812 29.6738 11.016C29.9018 11.208 30.3038 11.304 30.8798 11.304H31.8158V12.6H30.4478ZM37.3427 12.816C36.5027 12.816 35.7467 12.624 35.0747 12.24C34.4027 11.856 33.8687 11.316 33.4727 10.62C33.0887 9.91198 32.8967 9.08398 32.8967 8.13598C32.8967 7.18798 33.0947 6.36598 33.4907 5.66998C33.8867 4.96198 34.4207 4.41598 35.0927 4.03198C35.7767 3.64798 36.5387 3.45598 37.3787 3.45598C38.2187 3.45598 38.9747 3.64798 39.6467 4.03198C40.3187 4.41598 40.8467 4.96198 41.2307 5.66998C41.6267 6.36598 41.8247 7.18798 41.8247 8.13598C41.8247 9.08398 41.6267 9.91198 41.2307 10.62C40.8347 11.316 40.2947 11.856 39.6107 12.24C38.9387 12.624 38.1827 12.816 37.3427 12.816ZM37.3427 11.52C37.8587 11.52 38.3387 11.394 38.7827 11.142C39.2267 10.89 39.5867 10.512 39.8627 10.008C40.1387 9.50398 40.2767 8.87998 40.2767 8.13598C40.2767 7.39198 40.1387 6.76798 39.8627 6.26398C39.5987 5.75998 39.2447 5.38198 38.8007 5.12998C38.3567 4.87798 37.8827 4.75198 37.3787 4.75198C36.8627 4.75198 36.3827 4.87798 35.9387 5.12998C35.4947 5.38198 35.1347 5.75998 34.8587 6.26398C34.5827 6.76798 34.4447 7.39198 34.4447 8.13598C34.4447 8.87998 34.5827 9.50398 34.8587 10.008C35.1347 10.512 35.4887 10.89 35.9207 11.142C36.3647 11.394 36.8387 11.52 37.3427 11.52ZM43.567 12.6V3.67198H44.935L45.025 5.27398C45.313 4.70998 45.727 4.26598 46.267 3.94197C46.807 3.61798 47.419 3.45598 48.103 3.45598C49.159 3.45598 49.999 3.77998 50.623 4.42798C51.259 5.06398 51.577 6.04798 51.577 7.37998V12.6H50.065V7.54198C50.065 5.68198 49.297 4.75198 47.761 4.75198C46.993 4.75198 46.351 5.03398 45.835 5.59798C45.331 6.14998 45.079 6.94198 45.079 7.97398V12.6H43.567ZM56.9278 12.816C55.8598 12.816 54.9718 12.546 54.2638 12.006C53.5558 11.466 53.1418 10.734 53.0218 9.80998H54.5698C54.6658 10.278 54.9118 10.686 55.3078 11.034C55.7158 11.37 56.2618 11.538 56.9458 11.538C57.5818 11.538 58.0498 11.406 58.3498 11.142C58.6498 10.866 58.7998 10.542 58.7998 10.17C58.7998 9.62998 58.6018 9.26998 58.2058 9.08998C57.8218 8.90998 57.2758 8.74798 56.5678 8.60398C56.0878 8.50798 55.6078 8.36998 55.1278 8.18998C54.6478 8.00998 54.2458 7.75798 53.9218 7.43398C53.5978 7.09798 53.4358 6.65998 53.4358 6.11998C53.4358 5.33998 53.7238 4.70398 54.2998 4.21198C54.8878 3.70798 55.6798 3.45598 56.6758 3.45598C57.6238 3.45598 58.3978 3.69598 58.9978 4.17598C59.6098 4.64398 59.9638 5.31598 60.0598 6.19198H58.5658C58.5058 5.73598 58.3078 5.38198 57.9718 5.12998C57.6478 4.86598 57.2098 4.73398 56.6578 4.73398C56.1178 4.73398 55.6978 4.84798 55.3978 5.07598C55.1098 5.30398 54.9658 5.60398 54.9658 5.97598C54.9658 6.33598 55.1518 6.61798 55.5238 6.82198C55.9078 7.02598 56.4238 7.19998 57.0718 7.34398C57.6238 7.46398 58.1458 7.61398 58.6378 7.79398C59.1418 7.96198 59.5498 8.21998 59.8618 8.56798C60.1858 8.90398 60.3478 9.39598 60.3478 10.044C60.3598 10.848 60.0538 11.514 59.4298 12.042C58.8178 12.558 57.9838 12.816 56.9278 12.816Z" fill="#242424"/>
</svg>
