<svg width="59" height="14" viewBox="0 0 59 14" fill="none" xmlns="http://www.w3.org/2000/svg">
<path d="M-3.12328e-05 12.96V0.35996H7.66797V1.60196H1.51197V6.02996H6.74997V7.25396H1.51197V12.96H-3.12328e-05ZM11.52 13.176C10.776 13.176 10.158 13.05 9.66597 12.798C9.17397 12.546 8.80797 12.21 8.56797 11.79C8.32797 11.37 8.20797 10.914 8.20797 10.422C8.20797 9.50996 8.55597 8.80796 9.25197 8.31596C9.94797 7.82396 10.896 7.57796 12.096 7.57796H14.508V7.46996C14.508 6.68996 14.304 6.10196 13.896 5.70596C13.488 5.29796 12.942 5.09396 12.258 5.09396C11.67 5.09396 11.16 5.24396 10.728 5.54396C10.308 5.83196 10.044 6.25796 9.93597 6.82196H8.38797C8.44797 6.17396 8.66397 5.62796 9.03597 5.18396C9.41997 4.73996 9.89397 4.40396 10.458 4.17596C11.022 3.93596 11.622 3.81596 12.258 3.81596C13.506 3.81596 14.442 4.15196 15.066 4.82396C15.702 5.48396 16.02 6.36596 16.02 7.46996V12.96H14.67L14.58 11.358C14.328 11.862 13.956 12.294 13.464 12.654C12.984 13.002 12.336 13.176 11.52 13.176ZM11.754 11.898C12.33 11.898 12.822 11.748 13.23 11.448C13.65 11.148 13.968 10.758 14.184 10.278C14.4 9.79796 14.508 9.29396 14.508 8.76596V8.74796H12.222C11.334 8.74796 10.704 8.90396 10.332 9.21596C9.97197 9.51596 9.79197 9.89396 9.79197 10.35C9.79197 10.818 9.95997 11.196 10.296 11.484C10.644 11.76 11.13 11.898 11.754 11.898ZM20.1683 12.96L16.7843 4.03196H18.3683L21.0503 11.502L23.7503 4.03196H25.2983L21.9143 12.96H20.1683ZM27.539 2.05196C27.239 2.05196 26.987 1.95596 26.783 1.76396C26.591 1.55996 26.495 1.30796 26.495 1.00796C26.495 0.71996 26.591 0.47996 26.783 0.28796C26.987 0.0959603 27.239 -3.95775e-05 27.539 -3.95775e-05C27.827 -3.95775e-05 28.073 0.0959603 28.277 0.28796C28.481 0.47996 28.583 0.71996 28.583 1.00796C28.583 1.30796 28.481 1.55996 28.277 1.76396C28.073 1.95596 27.827 2.05196 27.539 2.05196ZM26.783 12.96V4.03196H28.295V12.96H26.783ZM34.6716 13.176C33.8196 13.176 33.0516 12.984 32.3676 12.6C31.6956 12.204 31.1616 11.658 30.7656 10.962C30.3816 10.254 30.1896 9.43196 30.1896 8.49596C30.1896 7.55996 30.3816 6.74396 30.7656 6.04796C31.1616 5.33996 31.6956 4.79396 32.3676 4.40996C33.0516 4.01396 33.8196 3.81596 34.6716 3.81596C35.7276 3.81596 36.6156 4.09196 37.3356 4.64396C38.0676 5.19596 38.5296 5.93396 38.7216 6.85796H37.1736C37.0536 6.30596 36.7596 5.87996 36.2916 5.57996C35.8236 5.26796 35.2776 5.11196 34.6536 5.11196C34.1496 5.11196 33.6756 5.23796 33.2316 5.48996C32.7876 5.74196 32.4276 6.11996 32.1516 6.62396C31.8756 7.12796 31.7376 7.75196 31.7376 8.49596C31.7376 9.23996 31.8756 9.86396 32.1516 10.368C32.4276 10.872 32.7876 11.256 33.2316 11.52C33.6756 11.772 34.1496 11.898 34.6536 11.898C35.2776 11.898 35.8236 11.748 36.2916 11.448C36.7596 11.136 37.0536 10.698 37.1736 10.134H38.7216C38.5416 11.034 38.0856 11.766 37.3536 12.33C36.6216 12.894 35.7276 13.176 34.6716 13.176ZM44.5413 13.176C43.7013 13.176 42.9453 12.984 42.2733 12.6C41.6013 12.216 41.0673 11.676 40.6713 10.98C40.2873 10.272 40.0953 9.44396 40.0953 8.49596C40.0953 7.54796 40.2933 6.72596 40.6893 6.02996C41.0853 5.32196 41.6193 4.77596 42.2913 4.39196C42.9753 4.00796 43.7373 3.81596 44.5773 3.81596C45.4173 3.81596 46.1733 4.00796 46.8453 4.39196C47.5173 4.77596 48.0453 5.32196 48.4293 6.02996C48.8253 6.72596 49.0233 7.54796 49.0233 8.49596C49.0233 9.44396 48.8253 10.272 48.4293 10.98C48.0333 11.676 47.4933 12.216 46.8093 12.6C46.1373 12.984 45.3813 13.176 44.5413 13.176ZM44.5413 11.88C45.0573 11.88 45.5373 11.754 45.9813 11.502C46.4253 11.25 46.7853 10.872 47.0613 10.368C47.3373 9.86396 47.4753 9.23996 47.4753 8.49596C47.4753 7.75196 47.3373 7.12796 47.0613 6.62396C46.7973 6.11996 46.4433 5.74196 45.9993 5.48996C45.5553 5.23796 45.0813 5.11196 44.5773 5.11196C44.0613 5.11196 43.5813 5.23796 43.1373 5.48996C42.6933 5.74196 42.3333 6.11996 42.0573 6.62396C41.7813 7.12796 41.6433 7.75196 41.6433 8.49596C41.6433 9.23996 41.7813 9.86396 42.0573 10.368C42.3333 10.872 42.6873 11.25 43.1193 11.502C43.5633 11.754 44.0373 11.88 44.5413 11.88ZM50.7656 12.96V4.03196H52.1336L52.2236 5.63396C52.5116 5.06996 52.9256 4.62596 53.4656 4.30196C54.0056 3.97796 54.6176 3.81596 55.3016 3.81596C56.3576 3.81596 57.1976 4.13996 57.8216 4.78796C58.4576 5.42396 58.7756 6.40796 58.7756 7.73996V12.96H57.2636V7.90196C57.2636 6.04196 56.4956 5.11196 54.9596 5.11196C54.1916 5.11196 53.5496 5.39396 53.0336 5.95796C52.5296 6.50996 52.2776 7.30196 52.2776 8.33396V12.96H50.7656Z" fill="#242424"/>
</svg>
