<svg width="65" height="12" viewBox="0 0 65 12" fill="none" xmlns="http://www.w3.org/2000/svg">
<path d="M0.000406265 11.52V0.320019H6.81641V1.42402H1.34441V5.36002H6.00041V6.44802H1.34441V11.52H0.000406265ZM10.5604 11.712C9.89907 11.712 9.34974 11.6 8.91241 11.376C8.47507 11.152 8.14974 10.8534 7.93641 10.48C7.72307 10.1067 7.61641 9.70135 7.61641 9.26402C7.61641 8.45335 7.92574 7.82935 8.54441 7.39202C9.16307 6.95469 10.0057 6.73602 11.0724 6.73602H13.2164V6.64002C13.2164 5.94669 13.0351 5.42402 12.6724 5.07202C12.3097 4.70935 11.8244 4.52802 11.2164 4.52802C10.6937 4.52802 10.2404 4.66135 9.85641 4.92802C9.48307 5.18402 9.24841 5.56269 9.15241 6.06402H7.77641C7.82974 5.48802 8.02174 5.00269 8.35241 4.60802C8.69374 4.21335 9.11507 3.91469 9.61641 3.71202C10.1177 3.49869 10.6511 3.39202 11.2164 3.39202C12.3257 3.39202 13.1577 3.69069 13.7124 4.28802C14.2777 4.87469 14.5604 5.65869 14.5604 6.64002V11.52H13.3604L13.2804 10.096C13.0564 10.544 12.7257 10.928 12.2884 11.248C11.8617 11.5574 11.2857 11.712 10.5604 11.712ZM10.7684 10.576C11.2804 10.576 11.7177 10.4427 12.0804 10.176C12.4537 9.90935 12.7364 9.56269 12.9284 9.13602C13.1204 8.70935 13.2164 8.26135 13.2164 7.79202V7.77602H11.1844C10.3951 7.77602 9.83507 7.91469 9.50441 8.19202C9.18441 8.45869 9.02441 8.79469 9.02441 9.20002C9.02441 9.61602 9.17374 9.95202 9.47241 10.208C9.78174 10.4534 10.2137 10.576 10.7684 10.576ZM18.5678 11.52L15.5598 3.58402H16.9678L19.3518 10.224L21.7518 3.58402H23.1278L20.1198 11.52H18.5678ZM27.8333 11.712C27.0866 11.712 26.4146 11.5414 25.8173 11.2C25.2199 10.8587 24.7453 10.3787 24.3933 9.76002C24.0519 9.13069 23.8813 8.39469 23.8813 7.55202C23.8813 6.70935 24.0573 5.97869 24.4093 5.36002C24.7613 4.73069 25.2359 4.24535 25.8333 3.90402C26.4413 3.56269 27.1186 3.39202 27.8653 3.39202C28.6119 3.39202 29.2839 3.56269 29.8813 3.90402C30.4786 4.24535 30.9479 4.73069 31.2893 5.36002C31.6413 5.97869 31.8173 6.70935 31.8173 7.55202C31.8173 8.39469 31.6413 9.13069 31.2893 9.76002C30.9373 10.3787 30.4573 10.8587 29.8493 11.2C29.2519 11.5414 28.5799 11.712 27.8333 11.712ZM27.8333 10.56C28.2919 10.56 28.7186 10.448 29.1133 10.224C29.5079 10 29.8279 9.66402 30.0733 9.21602C30.3186 8.76802 30.4413 8.21335 30.4413 7.55202C30.4413 6.89069 30.3186 6.33602 30.0733 5.88802C29.8386 5.44002 29.5239 5.10402 29.1293 4.88002C28.7346 4.65602 28.3133 4.54402 27.8653 4.54402C27.4066 4.54402 26.9799 4.65602 26.5853 4.88002C26.1906 5.10402 25.8706 5.44002 25.6253 5.88802C25.3799 6.33602 25.2573 6.89069 25.2573 7.55202C25.2573 8.21335 25.3799 8.76802 25.6253 9.21602C25.8706 9.66402 26.1853 10 26.5693 10.224C26.9639 10.448 27.3853 10.56 27.8333 10.56ZM33.686 11.52V3.58402H34.902L35.014 5.10402C35.2594 4.58135 35.6327 4.16535 36.134 3.85602C36.6354 3.54669 37.254 3.39202 37.99 3.39202V4.80002H37.622C37.1527 4.80002 36.7207 4.88535 36.326 5.05602C35.9314 5.21602 35.6167 5.49335 35.382 5.88802C35.1474 6.28269 35.03 6.82669 35.03 7.52002V11.52H33.686ZM40.3145 1.82402C40.0479 1.82402 39.8239 1.73869 39.6425 1.56802C39.4719 1.38669 39.3865 1.16269 39.3865 0.896019C39.3865 0.640019 39.4719 0.426686 39.6425 0.256019C39.8239 0.0853523 40.0479 1.90735e-05 40.3145 1.90735e-05C40.5705 1.90735e-05 40.7892 0.0853523 40.9705 0.256019C41.1519 0.426686 41.2425 0.640019 41.2425 0.896019C41.2425 1.16269 41.1519 1.38669 40.9705 1.56802C40.7892 1.73869 40.5705 1.82402 40.3145 1.82402ZM39.6425 11.52V3.58402H40.9865V11.52H39.6425ZM46.4627 11.52C45.7373 11.52 45.1667 11.344 44.7507 10.992C44.3347 10.64 44.1267 10.0054 44.1267 9.08802V4.72002H42.7507V3.58402H44.1267L44.3027 1.68002H45.4707V3.58402H47.8067V4.72002H45.4707V9.08802C45.4707 9.58935 45.572 9.93069 45.7747 10.112C45.9773 10.2827 46.3347 10.368 46.8467 10.368H47.6787V11.52H46.4627ZM52.8634 11.712C52.1061 11.712 51.4341 11.5414 50.8474 11.2C50.2607 10.848 49.7967 10.3627 49.4554 9.74402C49.1247 9.12535 48.9594 8.39469 48.9594 7.55202C48.9594 6.72002 49.1247 5.99469 49.4554 5.37602C49.7861 4.74669 50.2447 4.26135 50.8314 3.92002C51.4287 3.56802 52.1167 3.39202 52.8954 3.39202C53.6634 3.39202 54.3247 3.56802 54.8794 3.92002C55.4447 4.26135 55.8767 4.71469 56.1754 5.28002C56.4741 5.84535 56.6234 6.45335 56.6234 7.10402C56.6234 7.22135 56.6181 7.33869 56.6074 7.45602C56.6074 7.57335 56.6074 7.70669 56.6074 7.85602H50.2874C50.3194 8.46402 50.4581 8.97069 50.7034 9.37602C50.9594 9.77069 51.2741 10.0694 51.6474 10.272C52.0314 10.4747 52.4367 10.576 52.8634 10.576C53.4181 10.576 53.8821 10.448 54.2554 10.192C54.6287 9.93602 54.9007 9.58935 55.0714 9.15202H56.3994C56.1861 9.88802 55.7754 10.5014 55.1674 10.992C54.5701 11.472 53.8021 11.712 52.8634 11.712ZM52.8634 4.52802C52.2234 4.52802 51.6527 4.72535 51.1514 5.12002C50.6607 5.50402 50.3781 6.06935 50.3034 6.81602H55.2954C55.2634 6.10135 55.0181 5.54135 54.5594 5.13602C54.1007 4.73069 53.5354 4.52802 52.8634 4.52802ZM61.4448 11.712C60.4954 11.712 59.7061 11.472 59.0768 10.992C58.4474 10.512 58.0794 9.86135 57.9728 9.04002H59.3488C59.4341 9.45602 59.6528 9.81869 60.0048 10.128C60.3674 10.4267 60.8528 10.576 61.4608 10.576C62.0261 10.576 62.4421 10.4587 62.7088 10.224C62.9754 9.97869 63.1088 9.69069 63.1088 9.36002C63.1088 8.88002 62.9328 8.56002 62.5808 8.40002C62.2394 8.24002 61.7541 8.09602 61.1248 7.96802C60.6981 7.88269 60.2714 7.76002 59.8448 7.60002C59.4181 7.44002 59.0608 7.21602 58.7728 6.92802C58.4848 6.62935 58.3408 6.24002 58.3408 5.76002C58.3408 5.06669 58.5968 4.50135 59.1088 4.06402C59.6314 3.61602 60.3354 3.39202 61.2208 3.39202C62.0634 3.39202 62.7514 3.60535 63.2848 4.03202C63.8288 4.44802 64.1434 5.04535 64.2288 5.82402H62.9008C62.8474 5.41869 62.6714 5.10402 62.3728 4.88002C62.0848 4.64535 61.6954 4.52802 61.2048 4.52802C60.7248 4.52802 60.3514 4.62935 60.0848 4.83202C59.8288 5.03469 59.7008 5.30135 59.7008 5.63202C59.7008 5.95202 59.8661 6.20269 60.1968 6.38402C60.5381 6.56535 60.9968 6.72002 61.5728 6.84802C62.0634 6.95469 62.5274 7.08802 62.9648 7.24802C63.4128 7.39735 63.7754 7.62669 64.0528 7.93602C64.3408 8.23469 64.4848 8.67202 64.4848 9.24802C64.4954 9.96269 64.2234 10.5547 63.6688 11.024C63.1248 11.4827 62.3834 11.712 61.4448 11.712Z" fill="#F4F4F4"/>
</svg>
