<svg width="91" height="36" viewBox="0 0 91 36" fill="none" xmlns="http://www.w3.org/2000/svg">
<rect width="91" height="36" rx="18" fill="#F4F4F4"/>
<path d="M13.184 23V11.8H20V12.904H14.528V16.84H19.184V17.928H14.528V23H13.184ZM23.744 23.192C23.0827 23.192 22.5333 23.08 22.096 22.856C21.6587 22.632 21.3333 22.3333 21.12 21.96C20.9067 21.5867 20.8 21.1813 20.8 20.744C20.8 19.9333 21.1093 19.3093 21.728 18.872C22.3467 18.4347 23.1893 18.216 24.256 18.216H26.4V18.12C26.4 17.4267 26.2187 16.904 25.856 16.552C25.4933 16.1893 25.008 16.008 24.4 16.008C23.8773 16.008 23.424 16.1413 23.04 16.408C22.6667 16.664 22.432 17.0427 22.336 17.544H20.96C21.0133 16.968 21.2053 16.4827 21.536 16.088C21.8773 15.6933 22.2987 15.3947 22.8 15.192C23.3013 14.9787 23.8347 14.872 24.4 14.872C25.5093 14.872 26.3413 15.1707 26.896 15.768C27.4613 16.3547 27.744 17.1387 27.744 18.12V23H26.544L26.464 21.576C26.24 22.024 25.9093 22.408 25.472 22.728C25.0453 23.0373 24.4693 23.192 23.744 23.192ZM23.952 22.056C24.464 22.056 24.9013 21.9227 25.264 21.656C25.6373 21.3893 25.92 21.0427 26.112 20.616C26.304 20.1893 26.4 19.7413 26.4 19.272V19.256H24.368C23.5787 19.256 23.0187 19.3947 22.688 19.672C22.368 19.9387 22.208 20.2747 22.208 20.68C22.208 21.096 22.3573 21.432 22.656 21.688C22.9653 21.9333 23.3973 22.056 23.952 22.056ZM31.7514 23L28.7434 15.064H30.1514L32.5354 21.704L34.9354 15.064H36.3114L33.3034 23H31.7514ZM41.0169 23.192C40.2702 23.192 39.5982 23.0213 39.0009 22.68C38.4035 22.3387 37.9289 21.8587 37.5769 21.24C37.2355 20.6107 37.0649 19.8747 37.0649 19.032C37.0649 18.1893 37.2409 17.4587 37.5929 16.84C37.9449 16.2107 38.4195 15.7253 39.0169 15.384C39.6249 15.0427 40.3022 14.872 41.0489 14.872C41.7955 14.872 42.4675 15.0427 43.0649 15.384C43.6622 15.7253 44.1315 16.2107 44.4729 16.84C44.8249 17.4587 45.0009 18.1893 45.0009 19.032C45.0009 19.8747 44.8249 20.6107 44.4729 21.24C44.1209 21.8587 43.6409 22.3387 43.0329 22.68C42.4355 23.0213 41.7635 23.192 41.0169 23.192ZM41.0169 22.04C41.4755 22.04 41.9022 21.928 42.2969 21.704C42.6915 21.48 43.0115 21.144 43.2569 20.696C43.5022 20.248 43.6249 19.6933 43.6249 19.032C43.6249 18.3707 43.5022 17.816 43.2569 17.368C43.0222 16.92 42.7075 16.584 42.3129 16.36C41.9182 16.136 41.4969 16.024 41.0489 16.024C40.5902 16.024 40.1635 16.136 39.7689 16.36C39.3742 16.584 39.0542 16.92 38.8089 17.368C38.5635 17.816 38.4409 18.3707 38.4409 19.032C38.4409 19.6933 38.5635 20.248 38.8089 20.696C39.0542 21.144 39.3689 21.48 39.7529 21.704C40.1475 21.928 40.5689 22.04 41.0169 22.04ZM46.8696 23V15.064H48.0856L48.1976 16.584C48.443 16.0613 48.8163 15.6453 49.3176 15.336C49.819 15.0267 50.4376 14.872 51.1736 14.872V16.28H50.8056C50.3363 16.28 49.9043 16.3653 49.5096 16.536C49.115 16.696 48.8003 16.9733 48.5656 17.368C48.331 17.7627 48.2136 18.3067 48.2136 19V23H46.8696ZM53.4981 13.304C53.2315 13.304 53.0075 13.2187 52.8261 13.048C52.6555 12.8667 52.5701 12.6427 52.5701 12.376C52.5701 12.12 52.6555 11.9067 52.8261 11.736C53.0075 11.5653 53.2315 11.48 53.4981 11.48C53.7541 11.48 53.9728 11.5653 54.1541 11.736C54.3355 11.9067 54.4261 12.12 54.4261 12.376C54.4261 12.6427 54.3355 12.8667 54.1541 13.048C53.9728 13.2187 53.7541 13.304 53.4981 13.304ZM52.8261 23V15.064H54.1701V23H52.8261ZM59.6463 23C58.9209 23 58.3503 22.824 57.9343 22.472C57.5183 22.12 57.3103 21.4853 57.3103 20.568V16.2H55.9342V15.064H57.3103L57.4863 13.16H58.6543V15.064H60.9903V16.2H58.6543V20.568C58.6543 21.0693 58.7556 21.4107 58.9583 21.592C59.1609 21.7627 59.5183 21.848 60.0303 21.848H60.8623V23H59.6463ZM66.047 23.192C65.2897 23.192 64.6177 23.0213 64.031 22.68C63.4443 22.328 62.9803 21.8427 62.639 21.224C62.3083 20.6053 62.143 19.8747 62.143 19.032C62.143 18.2 62.3083 17.4747 62.639 16.856C62.9697 16.2267 63.4283 15.7413 64.015 15.4C64.6123 15.048 65.3003 14.872 66.079 14.872C66.847 14.872 67.5083 15.048 68.063 15.4C68.6283 15.7413 69.0603 16.1947 69.359 16.76C69.6577 17.3253 69.807 17.9333 69.807 18.584C69.807 18.7013 69.8017 18.8187 69.791 18.936C69.791 19.0533 69.791 19.1867 69.791 19.336H63.471C63.503 19.944 63.6417 20.4507 63.887 20.856C64.143 21.2507 64.4577 21.5493 64.831 21.752C65.215 21.9547 65.6203 22.056 66.047 22.056C66.6017 22.056 67.0657 21.928 67.439 21.672C67.8123 21.416 68.0843 21.0693 68.255 20.632H69.583C69.3697 21.368 68.959 21.9813 68.351 22.472C67.7537 22.952 66.9857 23.192 66.047 23.192ZM66.047 16.008C65.407 16.008 64.8363 16.2053 64.335 16.6C63.8443 16.984 63.5617 17.5493 63.487 18.296H68.479C68.447 17.5813 68.2017 17.0213 67.743 16.616C67.2843 16.2107 66.719 16.008 66.047 16.008ZM74.6284 23.192C73.679 23.192 72.8897 22.952 72.2604 22.472C71.631 21.992 71.263 21.3413 71.1564 20.52H72.5324C72.6177 20.936 72.8364 21.2987 73.1884 21.608C73.551 21.9067 74.0364 22.056 74.6444 22.056C75.2097 22.056 75.6257 21.9387 75.8924 21.704C76.159 21.4587 76.2924 21.1707 76.2924 20.84C76.2924 20.36 76.1164 20.04 75.7644 19.88C75.423 19.72 74.9377 19.576 74.3084 19.448C73.8817 19.3627 73.455 19.24 73.0284 19.08C72.6017 18.92 72.2444 18.696 71.9564 18.408C71.6684 18.1093 71.5244 17.72 71.5244 17.24C71.5244 16.5467 71.7804 15.9813 72.2924 15.544C72.815 15.096 73.519 14.872 74.4044 14.872C75.247 14.872 75.935 15.0853 76.4684 15.512C77.0124 15.928 77.327 16.5253 77.4124 17.304H76.0844C76.031 16.8987 75.855 16.584 75.5564 16.36C75.2684 16.1253 74.879 16.008 74.3884 16.008C73.9084 16.008 73.535 16.1093 73.2684 16.312C73.0124 16.5147 72.8844 16.7813 72.8844 17.112C72.8844 17.432 73.0497 17.6827 73.3804 17.864C73.7217 18.0453 74.1804 18.2 74.7564 18.328C75.247 18.4347 75.711 18.568 76.1484 18.728C76.5964 18.8773 76.959 19.1067 77.2364 19.416C77.5244 19.7147 77.6684 20.152 77.6684 20.728C77.679 21.4427 77.407 22.0347 76.8524 22.504C76.3084 22.9627 75.567 23.192 74.6284 23.192Z" fill="#242424"/>
</svg>
