<svg width="68" height="36" viewBox="0 0 68 36" fill="none" xmlns="http://www.w3.org/2000/svg">
<rect width="68" height="36" rx="18" fill="#F4F4F4"/>
<path d="M13.184 23V11.8H14.528V16.744H20.336V11.8H21.68V23H20.336V17.848H14.528V23H13.184ZM27.5794 23.192C26.8327 23.192 26.1607 23.0213 25.5634 22.68C24.966 22.3387 24.4914 21.8587 24.1394 21.24C23.798 20.6107 23.6274 19.8747 23.6274 19.032C23.6274 18.1893 23.8034 17.4587 24.1554 16.84C24.5074 16.2107 24.982 15.7253 25.5794 15.384C26.1874 15.0427 26.8647 14.872 27.6114 14.872C28.358 14.872 29.03 15.0427 29.6274 15.384C30.2247 15.7253 30.694 16.2107 31.0354 16.84C31.3874 17.4587 31.5634 18.1893 31.5634 19.032C31.5634 19.8747 31.3874 20.6107 31.0354 21.24C30.6834 21.8587 30.2034 22.3387 29.5954 22.68C28.998 23.0213 28.326 23.192 27.5794 23.192ZM27.5794 22.04C28.038 22.04 28.4647 21.928 28.8594 21.704C29.254 21.48 29.574 21.144 29.8194 20.696C30.0647 20.248 30.1874 19.6933 30.1874 19.032C30.1874 18.3707 30.0647 17.816 29.8194 17.368C29.5847 16.92 29.27 16.584 28.8754 16.36C28.4807 16.136 28.0594 16.024 27.6114 16.024C27.1527 16.024 26.726 16.136 26.3314 16.36C25.9367 16.584 25.6167 16.92 25.3714 17.368C25.126 17.816 25.0034 18.3707 25.0034 19.032C25.0034 19.6933 25.126 20.248 25.3714 20.696C25.6167 21.144 25.9314 21.48 26.3154 21.704C26.71 21.928 27.1314 22.04 27.5794 22.04ZM33.4321 23V15.064H34.6481L34.7441 16.216C35.0001 15.7893 35.3415 15.4587 35.7681 15.224C36.1948 14.9893 36.6748 14.872 37.2081 14.872C37.8375 14.872 38.3761 15 38.8241 15.256C39.2828 15.512 39.6348 15.9013 39.8801 16.424C40.1575 15.944 40.5361 15.5653 41.0161 15.288C41.5068 15.0107 42.0348 14.872 42.6001 14.872C43.5495 14.872 44.3068 15.16 44.8721 15.736C45.4375 16.3013 45.7201 17.176 45.7201 18.36V23H44.3921V18.504C44.3921 17.6827 44.2268 17.064 43.8961 16.648C43.5655 16.232 43.0908 16.024 42.4721 16.024C41.8321 16.024 41.2988 16.2747 40.8721 16.776C40.4561 17.2667 40.2481 17.9707 40.2481 18.888V23H38.9041V18.504C38.9041 17.6827 38.7388 17.064 38.4081 16.648C38.0775 16.232 37.6028 16.024 36.9841 16.024C36.3548 16.024 35.8268 16.2747 35.4001 16.776C34.9841 17.2667 34.7761 17.9707 34.7761 18.888V23H33.4321ZM51.3126 23.192C50.5553 23.192 49.8833 23.0213 49.2966 22.68C48.71 22.328 48.246 21.8427 47.9046 21.224C47.574 20.6053 47.4086 19.8747 47.4086 19.032C47.4086 18.2 47.574 17.4747 47.9046 16.856C48.2353 16.2267 48.694 15.7413 49.2806 15.4C49.878 15.048 50.566 14.872 51.3446 14.872C52.1126 14.872 52.774 15.048 53.3286 15.4C53.894 15.7413 54.326 16.1947 54.6246 16.76C54.9233 17.3253 55.0726 17.9333 55.0726 18.584C55.0726 18.7013 55.0673 18.8187 55.0566 18.936C55.0566 19.0533 55.0566 19.1867 55.0566 19.336H48.7366C48.7686 19.944 48.9073 20.4507 49.1526 20.856C49.4086 21.2507 49.7233 21.5493 50.0966 21.752C50.4806 21.9547 50.886 22.056 51.3126 22.056C51.8673 22.056 52.3313 21.928 52.7046 21.672C53.078 21.416 53.35 21.0693 53.5206 20.632H54.8486C54.6353 21.368 54.2246 21.9813 53.6166 22.472C53.0193 22.952 52.2513 23.192 51.3126 23.192ZM51.3126 16.008C50.6726 16.008 50.102 16.2053 49.6006 16.6C49.11 16.984 48.8273 17.5493 48.7526 18.296H53.7446C53.7126 17.5813 53.4673 17.0213 53.0086 16.616C52.55 16.2107 51.9846 16.008 51.3126 16.008Z" fill="#242424"/>
</svg>
