<svg width="41" height="13" viewBox="0 0 41 13" fill="none" xmlns="http://www.w3.org/2000/svg">
<path d="M-3.12328e-05 12.6V-2.52724e-05H1.51197V12.6H-3.12328e-05ZM7.83756 12.816C6.98556 12.816 6.21756 12.624 5.53356 12.24C4.86156 11.844 4.32756 11.298 3.93156 10.602C3.54756 9.89398 3.35556 9.07198 3.35556 8.13598C3.35556 7.19998 3.54756 6.38398 3.93156 5.68798C4.32756 4.97998 4.86156 4.43398 5.53356 4.04998C6.21756 3.65398 6.98556 3.45598 7.83756 3.45598C8.89356 3.45598 9.78156 3.73198 10.5016 4.28398C11.2336 4.83598 11.6956 5.57398 11.8876 6.49798H10.3396C10.2196 5.94598 9.92556 5.51998 9.45756 5.21998C8.98956 4.90798 8.44356 4.75198 7.81956 4.75198C7.31556 4.75198 6.84156 4.87798 6.39756 5.12998C5.95356 5.38198 5.59356 5.75998 5.31756 6.26398C5.04156 6.76798 4.90356 7.39198 4.90356 8.13598C4.90356 8.87998 5.04156 9.50398 5.31756 10.008C5.59356 10.512 5.95356 10.896 6.39756 11.16C6.84156 11.412 7.31556 11.538 7.81956 11.538C8.44356 11.538 8.98956 11.388 9.45756 11.088C9.92556 10.776 10.2196 10.338 10.3396 9.77398H11.8876C11.7076 10.674 11.2516 11.406 10.5196 11.97C9.78756 12.534 8.89356 12.816 7.83756 12.816ZM17.7072 12.816C16.8672 12.816 16.1112 12.624 15.4392 12.24C14.7672 11.856 14.2332 11.316 13.8372 10.62C13.4532 9.91198 13.2612 9.08398 13.2612 8.13598C13.2612 7.18798 13.4592 6.36598 13.8552 5.66998C14.2512 4.96198 14.7852 4.41598 15.4572 4.03198C16.1412 3.64798 16.9032 3.45598 17.7432 3.45598C18.5832 3.45598 19.3392 3.64798 20.0112 4.03198C20.6832 4.41598 21.2112 4.96198 21.5952 5.66998C21.9912 6.36598 22.1892 7.18798 22.1892 8.13598C22.1892 9.08398 21.9912 9.91198 21.5952 10.62C21.1992 11.316 20.6592 11.856 19.9752 12.24C19.3032 12.624 18.5472 12.816 17.7072 12.816ZM17.7072 11.52C18.2232 11.52 18.7032 11.394 19.1472 11.142C19.5912 10.89 19.9512 10.512 20.2272 10.008C20.5032 9.50398 20.6412 8.87998 20.6412 8.13598C20.6412 7.39198 20.5032 6.76798 20.2272 6.26398C19.9632 5.75998 19.6092 5.38198 19.1652 5.12998C18.7212 4.87798 18.2472 4.75198 17.7432 4.75198C17.2272 4.75198 16.7472 4.87798 16.3032 5.12998C15.8592 5.38198 15.4992 5.75998 15.2232 6.26398C14.9472 6.76798 14.8092 7.39198 14.8092 8.13598C14.8092 8.87998 14.9472 9.50398 15.2232 10.008C15.4992 10.512 15.8532 10.89 16.2852 11.142C16.7292 11.394 17.2032 11.52 17.7072 11.52ZM23.9315 12.6V3.67198H25.2995L25.3895 5.27398C25.6775 4.70998 26.0915 4.26598 26.6315 3.94197C27.1715 3.61798 27.7835 3.45598 28.4675 3.45598C29.5235 3.45598 30.3635 3.77998 30.9875 4.42798C31.6235 5.06398 31.9415 6.04798 31.9415 7.37998V12.6H30.4295V7.54198C30.4295 5.68198 29.6615 4.75198 28.1255 4.75198C27.3575 4.75198 26.7155 5.03398 26.1995 5.59798C25.6955 6.14998 25.4435 6.94198 25.4435 7.97398V12.6H23.9315ZM37.2923 12.816C36.2243 12.816 35.3363 12.546 34.6283 12.006C33.9203 11.466 33.5063 10.734 33.3863 9.80998H34.9343C35.0303 10.278 35.2763 10.686 35.6723 11.034C36.0803 11.37 36.6263 11.538 37.3103 11.538C37.9463 11.538 38.4143 11.406 38.7143 11.142C39.0143 10.866 39.1643 10.542 39.1643 10.17C39.1643 9.62998 38.9663 9.26998 38.5703 9.08998C38.1863 8.90998 37.6403 8.74798 36.9323 8.60398C36.4523 8.50798 35.9723 8.36998 35.4923 8.18998C35.0123 8.00998 34.6103 7.75798 34.2863 7.43398C33.9623 7.09798 33.8003 6.65998 33.8003 6.11998C33.8003 5.33998 34.0883 4.70398 34.6643 4.21198C35.2523 3.70798 36.0443 3.45598 37.0403 3.45598C37.9883 3.45598 38.7623 3.69598 39.3623 4.17598C39.9743 4.64398 40.3283 5.31598 40.4243 6.19198H38.9303C38.8703 5.73598 38.6723 5.38198 38.3363 5.12998C38.0123 4.86598 37.5743 4.73398 37.0223 4.73398C36.4823 4.73398 36.0623 4.84798 35.7623 5.07598C35.4743 5.30398 35.3303 5.60398 35.3303 5.97598C35.3303 6.33598 35.5163 6.61798 35.8883 6.82198C36.2723 7.02598 36.7883 7.19998 37.4363 7.34398C37.9883 7.46398 38.5103 7.61398 39.0023 7.79398C39.5063 7.96198 39.9143 8.21998 40.2263 8.56798C40.5503 8.90398 40.7123 9.39598 40.7123 10.044C40.7243 10.848 40.4183 11.514 39.7943 12.042C39.1823 12.558 38.3483 12.816 37.2923 12.816Z" fill="#242424"/>
</svg>
