<svg width="49" height="17" viewBox="0 0 49 17" fill="none" xmlns="http://www.w3.org/2000/svg">
<path d="M-3.12328e-05 12.6V-2.52724e-05H1.51197V12.6H-3.12328e-05ZM3.73356 12.6V3.67198H5.10156L5.19156 5.27398C5.47956 4.70998 5.89356 4.26598 6.43356 3.94197C6.97356 3.61798 7.58556 3.45598 8.26956 3.45598C9.32556 3.45598 10.1656 3.77998 10.7896 4.42798C11.4256 5.06398 11.7436 6.04798 11.7436 7.37998V12.6H10.2316V7.54198C10.2316 5.68198 9.46356 4.75198 7.92756 4.75198C7.15956 4.75198 6.51756 5.03398 6.00156 5.59798C5.49756 6.14998 5.24556 6.94198 5.24556 7.97398V12.6H3.73356ZM13.6743 16.56V3.67198H15.0423L15.1863 5.14797C15.4743 4.71598 15.8823 4.32598 16.4103 3.97798C16.9503 3.62998 17.6343 3.45598 18.4623 3.45598C19.3503 3.45598 20.1243 3.65998 20.7843 4.06797C21.4443 4.47598 21.9543 5.03398 22.3143 5.74198C22.6863 6.44998 22.8723 7.25398 22.8723 8.15398C22.8723 9.05398 22.6863 9.85798 22.3143 10.566C21.9543 11.262 21.4383 11.814 20.7663 12.222C20.1063 12.618 19.3323 12.816 18.4443 12.816C17.7123 12.816 17.0583 12.666 16.4823 12.366C15.9183 12.066 15.4863 11.646 15.1863 11.106V16.56H13.6743ZM18.2823 11.502C18.8823 11.502 19.4103 11.364 19.8663 11.088C20.3223 10.8 20.6823 10.404 20.9463 9.89998C21.2103 9.39598 21.3423 8.80798 21.3423 8.13598C21.3423 7.46398 21.2103 6.87598 20.9463 6.37198C20.6823 5.86798 20.3223 5.47798 19.8663 5.20198C19.4103 4.91398 18.8823 4.76998 18.2823 4.76998C17.6823 4.76998 17.1543 4.91398 16.6983 5.20198C16.2423 5.47798 15.8823 5.86798 15.6183 6.37198C15.3543 6.87598 15.2223 7.46398 15.2223 8.13598C15.2223 8.80798 15.3543 9.39598 15.6183 9.89998C15.8823 10.404 16.2423 10.8 16.6983 11.088C17.1543 11.364 17.6823 11.502 18.2823 11.502ZM27.8751 12.816C26.8191 12.816 25.9791 12.498 25.3551 11.862C24.7311 11.214 24.4191 10.224 24.4191 8.89198V3.67198H25.9311V8.72998C25.9311 10.59 26.6931 11.52 28.2171 11.52C28.9971 11.52 29.6391 11.244 30.1431 10.692C30.6591 10.128 30.9171 9.32998 30.9171 8.29798V3.67198H32.4291V12.6H31.0611L30.9531 10.998C30.6771 11.562 30.2631 12.006 29.7111 12.33C29.1711 12.654 28.5591 12.816 27.8751 12.816ZM38.0859 12.6C37.2699 12.6 36.6279 12.402 36.1599 12.006C35.6919 11.61 35.4579 10.896 35.4579 9.86398V4.94998H33.9099V3.67198H35.4579L35.6559 1.52998H36.9699V3.67198H39.5979V4.94998H36.9699V9.86398C36.9699 10.428 37.0839 10.812 37.3119 11.016C37.5399 11.208 37.9419 11.304 38.5179 11.304H39.4539V12.6H38.0859ZM44.5788 12.816C43.5108 12.816 42.6228 12.546 41.9148 12.006C41.2068 11.466 40.7928 10.734 40.6728 9.80998H42.2208C42.3168 10.278 42.5628 10.686 42.9588 11.034C43.3668 11.37 43.9128 11.538 44.5968 11.538C45.2328 11.538 45.7008 11.406 46.0008 11.142C46.3008 10.866 46.4508 10.542 46.4508 10.17C46.4508 9.62998 46.2528 9.26998 45.8568 9.08998C45.4728 8.90998 44.9268 8.74798 44.2188 8.60398C43.7388 8.50798 43.2588 8.36998 42.7788 8.18998C42.2988 8.00998 41.8968 7.75798 41.5728 7.43398C41.2488 7.09798 41.0868 6.65998 41.0868 6.11998C41.0868 5.33998 41.3748 4.70398 41.9508 4.21198C42.5388 3.70798 43.3308 3.45598 44.3268 3.45598C45.2748 3.45598 46.0488 3.69598 46.6488 4.17598C47.2608 4.64398 47.6148 5.31598 47.7108 6.19198H46.2168C46.1568 5.73598 45.9588 5.38198 45.6228 5.12998C45.2988 4.86598 44.8608 4.73398 44.3088 4.73398C43.7688 4.73398 43.3488 4.84798 43.0488 5.07598C42.7608 5.30398 42.6168 5.60398 42.6168 5.97598C42.6168 6.33598 42.8028 6.61798 43.1748 6.82198C43.5588 7.02598 44.0748 7.19998 44.7228 7.34398C45.2748 7.46398 45.7968 7.61398 46.2888 7.79398C46.7928 7.96198 47.2008 8.21998 47.5128 8.56798C47.8368 8.90398 47.9988 9.39598 47.9988 10.044C48.0108 10.848 47.7048 11.514 47.0808 12.042C46.4688 12.558 45.6348 12.816 44.5788 12.816Z" fill="#242424"/>
</svg>
