<svg width="43" height="13" viewBox="0 0 43 13" fill="none" xmlns="http://www.w3.org/2000/svg">
<path d="M-3.12328e-05 12.6V-2.52724e-05H1.76397L6.29997 8.78398L10.8 -2.52724e-05H12.582V12.6H11.07V2.69998L6.85797 10.8H5.72397L1.51197 2.71798V12.6H-3.12328e-05ZM18.8042 12.816C17.9522 12.816 17.1962 12.624 16.5362 12.24C15.8762 11.844 15.3542 11.298 14.9702 10.602C14.5982 9.90598 14.4122 9.08398 14.4122 8.13598C14.4122 7.19998 14.5982 6.38398 14.9702 5.68798C15.3422 4.97998 15.8582 4.43398 16.5182 4.04998C17.1902 3.65398 17.9642 3.45598 18.8402 3.45598C19.7042 3.45598 20.4482 3.65398 21.0722 4.04998C21.7082 4.43398 22.1942 4.94398 22.5302 5.57998C22.8662 6.21598 23.0342 6.89998 23.0342 7.63198C23.0342 7.76398 23.0282 7.89598 23.0162 8.02798C23.0162 8.15998 23.0162 8.30998 23.0162 8.47798H15.9062C15.9422 9.16198 16.0982 9.73198 16.3742 10.188C16.6622 10.632 17.0162 10.968 17.4362 11.196C17.8682 11.424 18.3242 11.538 18.8042 11.538C19.4282 11.538 19.9502 11.394 20.3702 11.106C20.7902 10.818 21.0962 10.428 21.2882 9.93598H22.7822C22.5422 10.764 22.0802 11.454 21.3962 12.006C20.7242 12.546 19.8602 12.816 18.8042 12.816ZM18.8042 4.73398C18.0842 4.73398 17.4422 4.95598 16.8782 5.39998C16.3262 5.83198 16.0082 6.46798 15.9242 7.30798H21.5402C21.5042 6.50398 21.2282 5.87398 20.7122 5.41798C20.1962 4.96198 19.5602 4.73398 18.8042 4.73398ZM24.6783 12.6V3.67198H26.0463L26.1363 5.27398C26.4243 4.70998 26.8383 4.26598 27.3783 3.94197C27.9183 3.61798 28.5303 3.45598 29.2143 3.45598C30.2703 3.45598 31.1103 3.77998 31.7343 4.42798C32.3703 5.06398 32.6883 6.04798 32.6883 7.37998V12.6H31.1763V7.54198C31.1763 5.68198 30.4083 4.75198 28.8723 4.75198C28.1043 4.75198 27.4623 5.03398 26.9463 5.59798C26.4423 6.14998 26.1903 6.94198 26.1903 7.97398V12.6H24.6783ZM37.877 12.816C36.821 12.816 35.981 12.498 35.357 11.862C34.733 11.214 34.421 10.224 34.421 8.89198V3.67198H35.933V8.72998C35.933 10.59 36.695 11.52 38.219 11.52C38.999 11.52 39.641 11.244 40.145 10.692C40.661 10.128 40.919 9.32998 40.919 8.29798V3.67198H42.431V12.6H41.063L40.955 10.998C40.679 11.562 40.265 12.006 39.713 12.33C39.173 12.654 38.561 12.816 37.877 12.816Z" fill="#242424"/>
</svg>
