<svg width="81" height="18" viewBox="0 0 81 18" fill="none" xmlns="http://www.w3.org/2000/svg">
<path d="M-3.12328e-05 12.96V0.35996H4.13997C5.12397 0.35996 5.93397 0.52196 6.56997 0.84596C7.20597 1.16996 7.67397 1.60796 7.97397 2.15996C8.28597 2.71196 8.44197 3.33596 8.44197 4.03196C8.44197 4.71596 8.29197 5.33396 7.99197 5.88596C7.69197 6.43796 7.22397 6.88196 6.58797 7.21796C5.95197 7.54196 5.13597 7.70396 4.13997 7.70396H1.51197V12.96H-3.12328e-05ZM1.51197 6.42596H4.10397C5.11197 6.42596 5.82597 6.21596 6.24597 5.79596C6.67797 5.36396 6.89397 4.77596 6.89397 4.03196C6.89397 3.27596 6.67797 2.68796 6.24597 2.26796C5.82597 1.83596 5.11197 1.61996 4.10397 1.61996H1.51197V6.42596ZM12.5219 13.176C11.7779 13.176 11.1599 13.05 10.6679 12.798C10.1759 12.546 9.80992 12.21 9.56992 11.79C9.32992 11.37 9.20992 10.914 9.20992 10.422C9.20992 9.50996 9.55792 8.80796 10.2539 8.31596C10.9499 7.82396 11.8979 7.57796 13.0979 7.57796H15.5099V7.46996C15.5099 6.68996 15.3059 6.10196 14.8979 5.70596C14.4899 5.29796 13.9439 5.09396 13.2599 5.09396C12.6719 5.09396 12.1619 5.24396 11.7299 5.54396C11.3099 5.83196 11.0459 6.25796 10.9379 6.82196H9.38992C9.44992 6.17396 9.66592 5.62796 10.0379 5.18396C10.4219 4.73996 10.8959 4.40396 11.4599 4.17596C12.0239 3.93596 12.6239 3.81596 13.2599 3.81596C14.5079 3.81596 15.4439 4.15196 16.0679 4.82396C16.7039 5.48396 17.0219 6.36596 17.0219 7.46996V12.96H15.6719L15.5819 11.358C15.3299 11.862 14.9579 12.294 14.4659 12.654C13.9859 13.002 13.3379 13.176 12.5219 13.176ZM12.7559 11.898C13.3319 11.898 13.8239 11.748 14.2319 11.448C14.6519 11.148 14.9699 10.758 15.1859 10.278C15.4019 9.79796 15.5099 9.29396 15.5099 8.76596V8.74796H13.2239C12.3359 8.74796 11.7059 8.90396 11.3339 9.21596C10.9739 9.51596 10.7939 9.89396 10.7939 10.35C10.7939 10.818 10.9619 11.196 11.2979 11.484C11.6459 11.76 12.1319 11.898 12.7559 11.898ZM22.4582 10.152C21.9542 10.152 21.4922 10.086 21.0722 9.95396L20.1722 10.8C20.3042 10.896 20.4662 10.98 20.6582 11.052C20.8622 11.112 21.1502 11.172 21.5222 11.232C21.8942 11.28 22.4162 11.334 23.0882 11.394C24.2882 11.478 25.1462 11.754 25.6622 12.222C26.1782 12.69 26.4362 13.302 26.4362 14.058C26.4362 14.574 26.2922 15.066 26.0042 15.534C25.7282 16.002 25.2962 16.386 24.7082 16.686C24.1322 16.986 23.3882 17.136 22.4762 17.136C21.6722 17.136 20.9582 17.028 20.3342 16.812C19.7102 16.608 19.2242 16.29 18.8762 15.858C18.5282 15.438 18.3542 14.904 18.3542 14.256C18.3542 13.92 18.4442 13.554 18.6242 13.158C18.8042 12.774 19.1402 12.408 19.6322 12.06C19.3682 11.952 19.1402 11.838 18.9482 11.718C18.7682 11.586 18.6002 11.442 18.4442 11.286V10.872L19.9742 9.35996C19.2662 8.75996 18.9122 7.96796 18.9122 6.98396C18.9122 6.39596 19.0502 5.86196 19.3262 5.38196C19.6022 4.90196 20.0042 4.52396 20.5322 4.24796C21.0602 3.95996 21.7022 3.81596 22.4582 3.81596C22.9742 3.81596 23.4422 3.88796 23.8622 4.03196H27.1562V5.16596L25.4822 5.23796C25.8302 5.74196 26.0042 6.32396 26.0042 6.98396C26.0042 7.57196 25.8602 8.10596 25.5722 8.58596C25.2962 9.06596 24.8942 9.44996 24.3662 9.73796C23.8502 10.014 23.2142 10.152 22.4582 10.152ZM22.4582 8.90996C23.0942 8.90996 23.5982 8.74796 23.9702 8.42396C24.3542 8.08796 24.5462 7.60796 24.5462 6.98396C24.5462 6.37196 24.3542 5.90396 23.9702 5.57996C23.5982 5.24396 23.0942 5.07596 22.4582 5.07596C21.8102 5.07596 21.2942 5.24396 20.9102 5.57996C20.5382 5.90396 20.3522 6.37196 20.3522 6.98396C20.3522 7.60796 20.5382 8.08796 20.9102 8.42396C21.2942 8.74796 21.8102 8.90996 22.4582 8.90996ZM19.8302 14.112C19.8302 14.712 20.0822 15.156 20.5862 15.444C21.0902 15.744 21.7202 15.894 22.4762 15.894C23.2202 15.894 23.8142 15.732 24.2582 15.408C24.7142 15.084 24.9422 14.652 24.9422 14.112C24.9422 13.728 24.7862 13.392 24.4742 13.104C24.1622 12.828 23.5862 12.666 22.7462 12.618C22.0862 12.57 21.5162 12.51 21.0362 12.438C20.5442 12.702 20.2202 12.984 20.0642 13.284C19.9082 13.596 19.8302 13.872 19.8302 14.112ZM29.4198 2.05196C29.1198 2.05196 28.8678 1.95596 28.6638 1.76396C28.4718 1.55996 28.3758 1.30796 28.3758 1.00796C28.3758 0.71996 28.4718 0.47996 28.6638 0.28796C28.8678 0.0959603 29.1198 -3.95775e-05 29.4198 -3.95775e-05C29.7078 -3.95775e-05 29.9538 0.0959603 30.1578 0.28796C30.3618 0.47996 30.4638 0.71996 30.4638 1.00796C30.4638 1.30796 30.3618 1.55996 30.1578 1.76396C29.9538 1.95596 29.7078 2.05196 29.4198 2.05196ZM28.6638 12.96V4.03196H30.1758V12.96H28.6638ZM32.4485 12.96V4.03196H33.8165L33.9065 5.63396C34.1945 5.06996 34.6085 4.62596 35.1485 4.30196C35.6885 3.97796 36.3005 3.81596 36.9845 3.81596C38.0405 3.81596 38.8805 4.13996 39.5045 4.78796C40.1405 5.42396 40.4585 6.40796 40.4585 7.73996V12.96H38.9465V7.90196C38.9465 6.04196 38.1785 5.11196 36.6425 5.11196C35.8745 5.11196 35.2325 5.39396 34.7165 5.95796C34.2125 6.50996 33.9605 7.30196 33.9605 8.33396V12.96H32.4485ZM45.3593 13.176C44.6153 13.176 43.9973 13.05 43.5053 12.798C43.0133 12.546 42.6473 12.21 42.4073 11.79C42.1673 11.37 42.0473 10.914 42.0473 10.422C42.0473 9.50996 42.3953 8.80796 43.0913 8.31596C43.7873 7.82396 44.7353 7.57796 45.9353 7.57796H48.3473V7.46996C48.3473 6.68996 48.1433 6.10196 47.7353 5.70596C47.3273 5.29796 46.7813 5.09396 46.0973 5.09396C45.5093 5.09396 44.9993 5.24396 44.5673 5.54396C44.1473 5.83196 43.8833 6.25796 43.7753 6.82196H42.2273C42.2873 6.17396 42.5033 5.62796 42.8753 5.18396C43.2593 4.73996 43.7333 4.40396 44.2973 4.17596C44.8613 3.93596 45.4613 3.81596 46.0973 3.81596C47.3453 3.81596 48.2813 4.15196 48.9053 4.82396C49.5413 5.48396 49.8593 6.36596 49.8593 7.46996V12.96H48.5093L48.4193 11.358C48.1673 11.862 47.7953 12.294 47.3033 12.654C46.8233 13.002 46.1753 13.176 45.3593 13.176ZM45.5933 11.898C46.1693 11.898 46.6613 11.748 47.0693 11.448C47.4893 11.148 47.8073 10.758 48.0233 10.278C48.2393 9.79796 48.3473 9.29396 48.3473 8.76596V8.74796H46.0613C45.1733 8.74796 44.5433 8.90396 44.1713 9.21596C43.8113 9.51596 43.6313 9.89396 43.6313 10.35C43.6313 10.818 43.7993 11.196 44.1353 11.484C44.4833 11.76 44.9693 11.898 45.5933 11.898ZM55.0495 12.96C54.2335 12.96 53.5915 12.762 53.1235 12.366C52.6555 11.97 52.4215 11.256 52.4215 10.224V5.30996H50.8735V4.03196H52.4215L52.6195 1.88996H53.9335V4.03196H56.5615V5.30996H53.9335V10.224C53.9335 10.788 54.0475 11.172 54.2755 11.376C54.5035 11.568 54.9055 11.664 55.4815 11.664H56.4175V12.96H55.0495ZM59.0404 2.05196C58.7404 2.05196 58.4884 1.95596 58.2844 1.76396C58.0924 1.55996 57.9964 1.30796 57.9964 1.00796C57.9964 0.71996 58.0924 0.47996 58.2844 0.28796C58.4884 0.0959603 58.7404 -3.95775e-05 59.0404 -3.95775e-05C59.3284 -3.95775e-05 59.5744 0.0959603 59.7784 0.28796C59.9824 0.47996 60.0844 0.71996 60.0844 1.00796C60.0844 1.30796 59.9824 1.55996 59.7784 1.76396C59.5744 1.95596 59.3284 2.05196 59.0404 2.05196ZM58.2844 12.96V4.03196H59.7964V12.96H58.2844ZM66.137 13.176C65.297 13.176 64.541 12.984 63.869 12.6C63.197 12.216 62.663 11.676 62.267 10.98C61.883 10.272 61.691 9.44396 61.691 8.49596C61.691 7.54796 61.889 6.72596 62.285 6.02996C62.681 5.32196 63.215 4.77596 63.887 4.39196C64.571 4.00796 65.333 3.81596 66.173 3.81596C67.013 3.81596 67.769 4.00796 68.441 4.39196C69.113 4.77596 69.641 5.32196 70.025 6.02996C70.421 6.72596 70.619 7.54796 70.619 8.49596C70.619 9.44396 70.421 10.272 70.025 10.98C69.629 11.676 69.089 12.216 68.405 12.6C67.733 12.984 66.977 13.176 66.137 13.176ZM66.137 11.88C66.653 11.88 67.133 11.754 67.577 11.502C68.021 11.25 68.381 10.872 68.657 10.368C68.933 9.86396 69.071 9.23996 69.071 8.49596C69.071 7.75196 68.933 7.12796 68.657 6.62396C68.393 6.11996 68.039 5.74196 67.595 5.48996C67.151 5.23796 66.677 5.11196 66.173 5.11196C65.657 5.11196 65.177 5.23796 64.733 5.48996C64.289 5.74196 63.929 6.11996 63.653 6.62396C63.377 7.12796 63.239 7.75196 63.239 8.49596C63.239 9.23996 63.377 9.86396 63.653 10.368C63.929 10.872 64.283 11.25 64.715 11.502C65.159 11.754 65.633 11.88 66.137 11.88ZM72.3614 12.96V4.03196H73.7294L73.8194 5.63396C74.1074 5.06996 74.5214 4.62596 75.0614 4.30196C75.6014 3.97796 76.2134 3.81596 76.8974 3.81596C77.9534 3.81596 78.7934 4.13996 79.4174 4.78796C80.0534 5.42396 80.3714 6.40796 80.3714 7.73996V12.96H78.8594V7.90196C78.8594 6.04196 78.0914 5.11196 76.5554 5.11196C75.7874 5.11196 75.1454 5.39396 74.6294 5.95796C74.1254 6.50996 73.8734 7.30196 73.8734 8.33396V12.96H72.3614Z" fill="#242424"/>
</svg>
