<svg width="196" height="142" viewBox="0 0 196 142" fill="none" xmlns="http://www.w3.org/2000/svg">
<rect x="0.5" y="0.5" width="195" height="141" rx="4.5" stroke="#9747FF" stroke-dasharray="10 5"/>
<rect x="20" y="78" width="44" height="44" rx="10" fill="#242424" fill-opacity="0.8"/>
<rect x="20.5" y="78.5" width="43" height="43" rx="9.5" stroke="#242424" stroke-opacity="0.1"/>
<path d="M45.0804 90.0601C45.2904 90.0601 45.5004 90.0601 45.9204 90.0601V93.2101C45.7104 93.2101 45.2904 93.2101 44.8704 93.2101C44.4504 93.2101 44.0304 93.2101 43.8204 93.4201C43.6104 93.6301 43.6104 93.8401 43.6104 94.3301C43.6104 94.7501 43.6104 95.0301 43.6104 95.4501H45.9204V98.1101H43.6104V109.66H40.0404V98.0401H38.1504V95.3801H40.0404V94.4701C40.0404 92.9301 40.2504 91.8101 40.6704 91.3201C41.3004 90.4101 42.5604 89.9901 44.4504 89.9901C44.6604 90.0601 44.8704 90.0601 45.0804 90.0601Z" fill="#F4F4F4"/>
<rect x="76" y="78" width="44" height="44" rx="10" fill="#242424" fill-opacity="0.8"/>
<rect x="76.5" y="78.5" width="43" height="43" rx="9.5" stroke="#242424" stroke-opacity="0.1"/>
<path d="M109.128 95.4115C109.114 94.4715 108.94 93.5388 108.606 92.6596C108.023 91.1583 106.835 89.9711 105.331 89.3899C104.462 89.0633 103.543 88.8882 102.612 88.8683C101.416 88.815 101.036 88.8 97.9986 88.8C94.961 88.8 94.5716 88.8 93.3837 88.8683C92.4545 88.8882 91.5353 89.0633 90.6658 89.3899C89.162 89.9711 87.9728 91.1583 87.3907 92.6596C87.0635 93.5277 86.8869 94.4454 86.8695 95.373C86.816 96.5689 86.7998 96.9477 86.7998 99.9802C86.7998 103.013 86.7998 103.4 86.8695 104.587C86.8881 105.516 87.0635 106.433 87.3907 107.303C87.974 108.803 89.162 109.991 90.6671 110.572C91.5328 110.909 92.452 111.101 93.385 111.131C94.5828 111.184 94.9622 111.2 97.9998 111.2C101.037 111.2 101.427 111.2 102.615 111.131C103.544 111.112 104.463 110.937 105.334 110.61C106.838 110.028 108.026 108.841 108.609 107.34C108.936 106.471 109.111 105.555 109.13 104.625C109.184 103.43 109.2 103.051 109.2 100.017C109.197 96.9849 109.197 96.5999 109.128 95.4115ZM97.9911 105.715C94.8142 105.715 92.2406 103.146 92.2406 99.974C92.2406 96.8024 94.8142 94.233 97.9911 94.233C101.166 94.233 103.742 96.8024 103.742 99.974C103.742 103.146 101.166 105.715 97.9911 105.715ZM103.97 95.3594C103.228 95.3594 102.63 94.7608 102.63 94.0207C102.63 93.2805 103.228 92.682 103.97 92.682C104.711 92.682 105.31 93.2805 105.31 94.0207C105.31 94.7608 104.711 95.3594 103.97 95.3594Z" fill="#F4F4F4"/>
<path d="M97.9928 103.479C99.9277 103.479 101.496 101.91 101.496 99.9754C101.496 98.0405 99.9277 96.4719 97.9928 96.4719C96.0578 96.4719 94.4893 98.0405 94.4893 99.9754C94.4893 101.91 96.0578 103.479 97.9928 103.479Z" fill="#F4F4F4"/>
<rect x="132" y="78" width="44" height="44" rx="10" fill="#242424" fill-opacity="0.8"/>
<rect x="132.5" y="78.5" width="43" height="43" rx="9.5" stroke="#242424" stroke-opacity="0.1"/>
<path fill-rule="evenodd" clip-rule="evenodd" d="M161.21 91.2499C160.02 91.1799 157.57 91.1099 153.86 91.1099H153.37C149.8 91.1099 147.42 91.1799 146.23 91.3199C144.62 91.4599 143.5 91.8799 142.87 92.4399C142.31 92.9299 141.89 93.8399 141.75 95.0299C141.68 95.7999 141.61 97.4099 141.61 99.8599V100.21C141.61 102.52 141.68 104.13 141.82 104.9C142.03 106.02 142.38 106.86 143.08 107.35C143.78 107.91 144.97 108.26 146.65 108.4C147.84 108.47 150.29 108.54 154 108.54H154.49C158.06 108.54 160.44 108.47 161.63 108.33C163.24 108.19 164.36 107.77 164.99 107.21C165.55 106.72 165.97 105.81 166.11 104.62C166.18 103.85 166.25 102.24 166.25 99.7899V99.4399C166.25 97.1299 166.18 95.5199 166.04 94.7499C165.83 93.6299 165.48 92.7899 164.78 92.2999C164.08 91.7399 162.89 91.3899 161.21 91.2499ZM158.48 99.8599L150.78 104.48V95.2399L158.48 99.8599Z" fill="#F4F4F4"/>
<rect x="20.5" y="20.5" width="43" height="43" rx="9.5" stroke="#242424" stroke-opacity="0.1"/>
<g opacity="0.8">
<path d="M45.0804 32.0601C45.2904 32.0601 45.5004 32.0601 45.9204 32.0601V35.2101C45.7104 35.2101 45.2904 35.2101 44.8704 35.2101C44.4504 35.2101 44.0304 35.2101 43.8204 35.4201C43.6104 35.6301 43.6104 35.8401 43.6104 36.3301C43.6104 36.7501 43.6104 37.0301 43.6104 37.4501H45.9204V40.1101H43.6104V51.6601H40.0404V40.0401H38.1504V37.3801H40.0404V36.4701C40.0404 34.9301 40.2504 33.8101 40.6704 33.3201C41.3004 32.4101 42.5604 31.9901 44.4504 31.9901C44.6604 32.0601 44.8704 32.0601 45.0804 32.0601Z" fill="#242424"/>
</g>
<rect x="76.5" y="20.5" width="43" height="43" rx="9.5" stroke="#242424" stroke-opacity="0.1"/>
<g opacity="0.8">
<path d="M109.128 37.4115C109.114 36.4715 108.94 35.5388 108.606 34.6596C108.023 33.1583 106.835 31.9711 105.331 31.3899C104.462 31.0633 103.543 30.8882 102.612 30.8683C101.416 30.815 101.036 30.8 97.9986 30.8C94.961 30.8 94.5716 30.8 93.3837 30.8683C92.4545 30.8882 91.5353 31.0633 90.6658 31.3899C89.162 31.9711 87.9728 33.1583 87.3907 34.6596C87.0635 35.5277 86.8869 36.4454 86.8695 37.373C86.816 38.5689 86.7998 38.9477 86.7998 41.9802C86.7998 45.0127 86.7998 45.4002 86.8695 46.5873C86.8881 47.5162 87.0635 48.4327 87.3907 49.3032C87.974 50.8033 89.162 51.9905 90.6671 52.5717C91.5328 52.9095 92.452 53.1007 93.385 53.1305C94.5828 53.1839 94.9622 53.2001 97.9998 53.2001C101.037 53.2001 101.427 53.2001 102.615 53.1305C103.544 53.1119 104.463 52.9368 105.334 52.6102C106.838 52.0278 108.026 50.8406 108.609 49.3405C108.936 48.4712 109.111 47.5547 109.13 46.6246C109.184 45.43 109.2 45.0512 109.2 42.0174C109.197 38.9849 109.197 38.5999 109.128 37.4115ZM97.9911 47.7149C94.8142 47.7149 92.2406 45.1456 92.2406 41.974C92.2406 38.8024 94.8142 36.233 97.9911 36.233C101.166 36.233 103.742 38.8024 103.742 41.974C103.742 45.1456 101.166 47.7149 97.9911 47.7149ZM103.97 37.3594C103.228 37.3594 102.63 36.7608 102.63 36.0207C102.63 35.2805 103.228 34.682 103.97 34.682C104.711 34.682 105.31 35.2805 105.31 36.0207C105.31 36.7608 104.711 37.3594 103.97 37.3594Z" fill="#242424"/>
<path d="M97.9928 45.4789C99.9277 45.4789 101.496 43.9104 101.496 41.9754C101.496 40.0405 99.9277 38.4719 97.9928 38.4719C96.0578 38.4719 94.4893 40.0405 94.4893 41.9754C94.4893 43.9104 96.0578 45.4789 97.9928 45.4789Z" fill="#242424"/>
</g>
<rect x="132.5" y="20.5" width="43" height="43" rx="9.5" stroke="#242424" stroke-opacity="0.1"/>
<g opacity="0.8">
<path fill-rule="evenodd" clip-rule="evenodd" d="M161.21 33.2499C160.02 33.1799 157.57 33.1099 153.86 33.1099H153.37C149.8 33.1099 147.42 33.1799 146.23 33.3199C144.62 33.4599 143.5 33.8799 142.87 34.4399C142.31 34.9299 141.89 35.8399 141.75 37.0299C141.68 37.7999 141.61 39.4099 141.61 41.8599V42.2099C141.61 44.5199 141.68 46.1299 141.82 46.8999C142.03 48.0199 142.38 48.8599 143.08 49.3499C143.78 49.9099 144.97 50.2599 146.65 50.3999C147.84 50.4699 150.29 50.5399 154 50.5399H154.49C158.06 50.5399 160.44 50.4699 161.63 50.3299C163.24 50.1899 164.36 49.7699 164.99 49.2099C165.55 48.7199 165.97 47.8099 166.11 46.6199C166.18 45.8499 166.25 44.2399 166.25 41.7899V41.4399C166.25 39.1299 166.18 37.5199 166.04 36.7499C165.83 35.6299 165.48 34.7899 164.78 34.2999C164.08 33.7399 162.89 33.3899 161.21 33.2499ZM158.48 41.8599L150.78 46.4799V37.2399L158.48 41.8599Z" fill="#242424"/>
</g>
</svg>
