<svg width="196" height="143" viewBox="0 0 196 143" fill="none" xmlns="http://www.w3.org/2000/svg">
<rect x="0.5" y="0.5" width="195" height="142" rx="4.5" stroke="#9747FF" stroke-dasharray="10 5"/>
<rect x="20" y="79" width="44" height="44" rx="10" fill="#F4F4F4"/>
<rect x="20.5" y="79.5" width="43" height="43" rx="9.5" stroke="#F4F4F4" stroke-opacity="0.1"/>
<g opacity="0.8">
<path d="M45.0804 91.0601C45.2904 91.0601 45.5004 91.0601 45.9204 91.0601V94.2101C45.7104 94.2101 45.2904 94.2101 44.8704 94.2101C44.4504 94.2101 44.0304 94.2101 43.8204 94.4201C43.6104 94.6301 43.6104 94.8401 43.6104 95.3301C43.6104 95.7501 43.6104 96.0301 43.6104 96.4501H45.9204V99.1101H43.6104V110.66H40.0404V99.0401H38.1504V96.3801H40.0404V95.4701C40.0404 93.9301 40.2504 92.8101 40.6704 92.3201C41.3004 91.4101 42.5604 90.9901 44.4504 90.9901C44.6604 91.0601 44.8704 91.0601 45.0804 91.0601Z" fill="#242424"/>
</g>
<rect x="76" y="79" width="44" height="44" rx="10" fill="#F4F4F4"/>
<rect x="76.5" y="79.5" width="43" height="43" rx="9.5" stroke="#F4F4F4" stroke-opacity="0.1"/>
<g opacity="0.8">
<path d="M109.128 96.4115C109.114 95.4715 108.94 94.5388 108.606 93.6596C108.023 92.1583 106.835 90.9711 105.331 90.3899C104.462 90.0633 103.543 89.8882 102.612 89.8683C101.416 89.815 101.036 89.8 97.9986 89.8C94.961 89.8 94.5716 89.8 93.3837 89.8683C92.4545 89.8882 91.5353 90.0633 90.6658 90.3899C89.162 90.9711 87.9728 92.1583 87.3907 93.6596C87.0635 94.5277 86.8869 95.4454 86.8695 96.373C86.816 97.5689 86.7998 97.9477 86.7998 100.98C86.7998 104.013 86.7998 104.4 86.8695 105.587C86.8881 106.516 87.0635 107.433 87.3907 108.303C87.974 109.803 89.162 110.991 90.6671 111.572C91.5328 111.909 92.452 112.101 93.385 112.131C94.5828 112.184 94.9622 112.2 97.9998 112.2C101.037 112.2 101.427 112.2 102.615 112.131C103.544 112.112 104.463 111.937 105.334 111.61C106.838 111.028 108.026 109.841 108.609 108.34C108.936 107.471 109.111 106.555 109.13 105.625C109.184 104.43 109.2 104.051 109.2 101.017C109.197 97.9849 109.197 97.5999 109.128 96.4115ZM97.9911 106.715C94.8142 106.715 92.2406 104.146 92.2406 100.974C92.2406 97.8024 94.8142 95.233 97.9911 95.233C101.166 95.233 103.742 97.8024 103.742 100.974C103.742 104.146 101.166 106.715 97.9911 106.715ZM103.97 96.3594C103.228 96.3594 102.63 95.7608 102.63 95.0207C102.63 94.2805 103.228 93.682 103.97 93.682C104.711 93.682 105.31 94.2805 105.31 95.0207C105.31 95.7608 104.711 96.3594 103.97 96.3594Z" fill="#242424"/>
<path d="M97.9928 104.479C99.9277 104.479 101.496 102.91 101.496 100.975C101.496 99.0405 99.9277 97.4719 97.9928 97.4719C96.0578 97.4719 94.4893 99.0405 94.4893 100.975C94.4893 102.91 96.0578 104.479 97.9928 104.479Z" fill="#242424"/>
</g>
<rect x="132" y="79" width="44" height="44" rx="10" fill="#F4F4F4"/>
<rect x="132.5" y="79.5" width="43" height="43" rx="9.5" stroke="#F4F4F4" stroke-opacity="0.1"/>
<g opacity="0.8">
<path fill-rule="evenodd" clip-rule="evenodd" d="M161.21 92.2499C160.02 92.1799 157.57 92.1099 153.86 92.1099H153.37C149.8 92.1099 147.42 92.1799 146.23 92.3199C144.62 92.4599 143.5 92.8799 142.87 93.4399C142.31 93.9299 141.89 94.8399 141.75 96.0299C141.68 96.7999 141.61 98.4099 141.61 100.86V101.21C141.61 103.52 141.68 105.13 141.82 105.9C142.03 107.02 142.38 107.86 143.08 108.35C143.78 108.91 144.97 109.26 146.65 109.4C147.84 109.47 150.29 109.54 154 109.54H154.49C158.06 109.54 160.44 109.47 161.63 109.33C163.24 109.19 164.36 108.77 164.99 108.21C165.55 107.72 165.97 106.81 166.11 105.62C166.18 104.85 166.25 103.24 166.25 100.79V100.44C166.25 98.1299 166.18 96.5199 166.04 95.7499C165.83 94.6299 165.48 93.7899 164.78 93.2999C164.08 92.7399 162.89 92.3899 161.21 92.2499ZM158.48 100.86L150.78 105.48V96.2399L158.48 100.86Z" fill="#242424"/>
</g>
<rect x="20.5" y="20.5" width="43" height="43" rx="9.5" stroke="#F4F4F4" stroke-opacity="0.1"/>
<g opacity="0.8">
<path d="M45.0804 32.0601C45.2904 32.0601 45.5004 32.0601 45.9204 32.0601V35.2101C45.7104 35.2101 45.2904 35.2101 44.8704 35.2101C44.4504 35.2101 44.0304 35.2101 43.8204 35.4201C43.6104 35.6301 43.6104 35.8401 43.6104 36.3301C43.6104 36.7501 43.6104 37.0301 43.6104 37.4501H45.9204V40.1101H43.6104V51.6601H40.0404V40.0401H38.1504V37.3801H40.0404V36.4701C40.0404 34.9301 40.2504 33.8101 40.6704 33.3201C41.3004 32.4101 42.5604 31.9901 44.4504 31.9901C44.6604 32.0601 44.8704 32.0601 45.0804 32.0601Z" fill="#F4F4F4"/>
</g>
<rect x="76.5" y="20.5" width="43" height="43" rx="9.5" stroke="#F4F4F4" stroke-opacity="0.1"/>
<g opacity="0.8">
<path d="M109.128 37.4115C109.114 36.4715 108.94 35.5388 108.606 34.6596C108.023 33.1583 106.835 31.9711 105.331 31.3899C104.462 31.0633 103.543 30.8882 102.612 30.8683C101.416 30.815 101.036 30.8 97.9986 30.8C94.961 30.8 94.5716 30.8 93.3837 30.8683C92.4545 30.8882 91.5353 31.0633 90.6658 31.3899C89.162 31.9711 87.9728 33.1583 87.3907 34.6596C87.0635 35.5277 86.8869 36.4454 86.8695 37.373C86.816 38.5689 86.7998 38.9477 86.7998 41.9802C86.7998 45.0127 86.7998 45.4002 86.8695 46.5873C86.8881 47.5162 87.0635 48.4327 87.3907 49.3032C87.974 50.8033 89.162 51.9905 90.6671 52.5717C91.5328 52.9095 92.452 53.1007 93.385 53.1305C94.5828 53.1839 94.9622 53.2001 97.9998 53.2001C101.037 53.2001 101.427 53.2001 102.615 53.1305C103.544 53.1119 104.463 52.9368 105.334 52.6102C106.838 52.0278 108.026 50.8406 108.609 49.3405C108.936 48.4712 109.111 47.5547 109.13 46.6246C109.184 45.43 109.2 45.0512 109.2 42.0174C109.197 38.9849 109.197 38.5999 109.128 37.4115ZM97.9911 47.7149C94.8142 47.7149 92.2406 45.1456 92.2406 41.974C92.2406 38.8024 94.8142 36.233 97.9911 36.233C101.166 36.233 103.742 38.8024 103.742 41.974C103.742 45.1456 101.166 47.7149 97.9911 47.7149ZM103.97 37.3594C103.228 37.3594 102.63 36.7608 102.63 36.0207C102.63 35.2805 103.228 34.682 103.97 34.682C104.711 34.682 105.31 35.2805 105.31 36.0207C105.31 36.7608 104.711 37.3594 103.97 37.3594Z" fill="#F4F4F4"/>
<path d="M97.9928 45.4789C99.9277 45.4789 101.496 43.9104 101.496 41.9754C101.496 40.0405 99.9277 38.4719 97.9928 38.4719C96.0578 38.4719 94.4893 40.0405 94.4893 41.9754C94.4893 43.9104 96.0578 45.4789 97.9928 45.4789Z" fill="#F4F4F4"/>
</g>
<rect x="132.5" y="20.5" width="43" height="43" rx="9.5" stroke="#F4F4F4" stroke-opacity="0.1"/>
<g opacity="0.8">
<path fill-rule="evenodd" clip-rule="evenodd" d="M161.21 33.2499C160.02 33.1799 157.57 33.1099 153.86 33.1099H153.37C149.8 33.1099 147.42 33.1799 146.23 33.3199C144.62 33.4599 143.5 33.8799 142.87 34.4399C142.31 34.9299 141.89 35.8399 141.75 37.0299C141.68 37.7999 141.61 39.4099 141.61 41.8599V42.2099C141.61 44.5199 141.68 46.1299 141.82 46.8999C142.03 48.0199 142.38 48.8599 143.08 49.3499C143.78 49.9099 144.97 50.2599 146.65 50.3999C147.84 50.4699 150.29 50.5399 154 50.5399H154.49C158.06 50.5399 160.44 50.4699 161.63 50.3299C163.24 50.1899 164.36 49.7699 164.99 49.2099C165.55 48.7199 165.97 47.8099 166.11 46.6199C166.18 45.8499 166.25 44.2399 166.25 41.7899V41.4399C166.25 39.1299 166.18 37.5199 166.04 36.7499C165.83 35.6299 165.48 34.7899 164.78 34.2999C164.08 33.7399 162.89 33.3899 161.21 33.2499ZM158.48 41.8599L150.78 46.4799V37.2399L158.48 41.8599Z" fill="#F4F4F4"/>
</g>
</svg>
